<?xml version="1.0" encoding="UTF-8"?>
<svg xmlns="http://www.w3.org/2000/svg" viewBox="0 0 759 526" width="759" height="526">
<path d="M0.25 0.25C253.08 0.25 505.92 0.25 758.75 0.25C758.75 175.42 758.75 350.58 758.75 525.75C505.92 525.75 253.08 525.75 0.25 525.75C0.25 350.58 0.25 175.42 0.25 0.25ZM308.5 9.04C295.84 27.4 287.76 61.5 284.92 83.5C283.95 90.95 281.51 100.03 282.77 107.5C284.07 115.2 292.73 127.15 296.47 134.5C289.73 147.5 282.99 160.5 276.25 173.5C281.9 171.83 287.55 170.17 293.2 168.5C285.07 183.5 279.34 200.1 287.54 216.5C289.19 212.65 290.85 208.8 292.5 204.95C295.26 208.51 296.78 215.39 299.61 219.87C304.01 226.82 311.05 232.47 317.5 237.47C316.94 234.11 314.99 230.99 313.72 227.75C310.51 219.54 307.11 209.81 308.5 200.98C310.42 203.41 311.84 206.2 314.06 208.43C323.49 217.91 330.99 219.43 335.48 234C336.69 237.91 337.76 242.4 337.83 246.5C337.89 250.21 336.89 253.79 336.8 257.5C336.62 264.66 340.02 273.25 344.9 278.61C352.56 287.01 361.85 283.19 370.56 279.09C373.18 277.86 377.95 276.58 379.32 273.8C380.48 271.46 379.85 268.22 379.5 265.79C376.96 263.7 374.43 261.6 371.89 259.5C373.98 256 374.31 253.9 370.6 251.5C368.57 252.05 366.53 252.6 364.5 253.15C360 249.8 358.27 243.79 361.5 238.93C367.43 237.21 374.39 240.97 380.5 241.28C387.77 241.64 396.74 236.27 403.5 239.01C406.42 243.65 404.47 248.51 401.5 252.64C397.01 252.83 393.58 249.61 390.9 254.5C391.48 256.17 392.06 257.83 392.63 259.5C390.26 261.5 387.89 263.5 385.52 265.5C385.52 268.5 385.52 271.5 385.52 274.5C390.17 277.04 394.94 279.63 399.87 281.61C412.02 286.47 419.95 282.15 425.3 270.75C426.38 268.46 427.66 266.02 428.13 263.5C429.12 258.15 427.48 252.81 427.24 247.5C426.96 241.63 428.25 235.32 430.44 229.87C435.13 218.2 442.59 216.06 450.62 208.12C452.71 206.05 453.91 203.59 455.5 201.18C457.47 209.77 453.94 220.24 450.71 228.26C449.36 231.61 446.73 235.15 446.5 238.7C453.91 233.77 462.05 225.74 466.5 218.01C468.88 213.87 469.59 208.09 472.5 204.77C474.17 208.52 475.83 212.27 477.5 216.02C479.74 213.56 480.21 209.88 481 206.5C484.21 192.88 477.69 180.24 471.66 168.5C477.16 168.05 482.62 170.82 487.5 173.38C486.34 162.04 471.88 146.57 468.73 134.5C472.48 126.66 481.16 115.53 482.55 107.21C483.84 99.5 481.13 90.17 480.07 82.5C476.52 56.61 468.68 32.25 456.5 9.2C441.83 35.06 427.17 60.93 412.5 86.79C406.04 86.15 398.98 84.82 392.51 85.9C389.44 86.41 386.58 88.52 383.45 88.76C379.29 89.07 375.53 86.27 371.5 85.76C365.12 84.96 358.8 86.9 352.5 86.56C337.83 60.72 323.17 34.88 308.5 9.04ZM307.5 44.22C309.9 57.32 312.3 70.41 314.7 83.5C313.58 83.17 312.46 82.83 311.35 82.5C311.68 89.73 318.07 94.76 320.33 101.5C314.72 108.11 309.11 114.72 303.5 121.32C299.7 117.39 295.31 110.79 294.4 105.25C292.66 94.58 297.38 75.24 300.04 64.5C301.38 59.11 303.74 47.77 307.5 44.22ZM458.5 44.05C463.38 57.24 466.51 70.71 469.06 84.49C470.24 90.86 471.83 98.92 470.72 105.38C469.78 110.79 465.67 116.74 462.5 121.09C456.54 114.56 450.58 108.03 444.61 101.5C447.71 95.52 453.15 91.08 455 84.5C453.95 84.49 451.1 85.15 450.46 84.17C449.66 82.95 452.18 75.87 452.6 74.22C454.31 67.5 455.4 60.51 456.37 53.64C456.84 50.36 456.7 46.69 458.5 44.05ZM194.5 82.2C187.59 92.35 180.57 102.65 171.97 111.47C164.87 118.74 156.18 124.28 149.35 131.83C145.66 135.91 143.03 140.76 140.32 145.5C132.25 147.83 124.19 150.17 116.12 152.5C117.93 149.43 119.69 146.25 122.69 144.18C125.39 142.32 128.96 141.96 131.55 140.08C133.78 138.46 135.04 135.33 136.6 133.12C137.82 131.41 140.24 129.43 140.66 127.34C141.21 124.56 139.95 120.19 139.31 117.5C135.01 119.57 131.49 124.14 127.92 127.43C119.55 135.15 111.77 142.27 106.39 152.5C108.08 153.17 109.77 153.83 111.46 154.5C107.35 158.45 102.32 160.89 97.74 164.25C90.85 169.29 84.32 174.84 77.55 180.03C73.2 183.35 66.24 187.48 64.45 192.9C62.85 197.77 66.3 200.84 66.42 205.5C60.87 208.7 54.59 210.63 48.73 213.22C41.61 216.37 34.71 220.03 27.55 223.08C22.86 225.08 15.32 226.34 11.89 230.39C8.9 233.92 11.98 239.18 13.86 242.63C15.36 245.38 17.92 247.48 19.35 250.15C23.47 257.85 25.69 266.22 35.65 267.5C39.13 274.93 43.74 282.91 52.5 284.7C50.43 279.95 47.06 276.03 47.62 270.5C45.87 269.17 44.13 267.83 42.38 266.5C44.36 264.47 46.63 265.04 49.4 265.5C51.62 272.79 59.66 280.61 67.05 282.5C64.59 275.48 61.42 269.01 60.7 261.5C69.59 255.64 83.93 245.01 94.5 244.05C106.44 242.98 126.89 255.72 124.82 269.45C124.16 273.84 120.57 278.11 118.13 281.66C111.6 291.17 103.92 301.67 94.5 308.47C88.15 306.21 81.91 298.67 76.5 297.37C77.12 304.09 79.71 309.36 83.89 314.5C81.58 315.17 79.27 315.83 76.97 316.5C77.51 314.5 78.04 312.5 78.58 310.5C73.93 308.53 70.47 306.01 66.5 302.96C66.06 308.47 69.7 313.2 72.97 317.5C68.98 329.35 85.8 338.6 95.6 339.5C96.48 337.92 96.24 337.51 95.76 335.5C101.24 334.62 106.27 334.4 111.5 332.23C111.51 330.42 111.14 328.55 111.37 326.7C112.4 318.14 122.76 308.78 128.91 303.43C139.94 293.84 153.06 284 161.42 271.89C168.91 261.01 163.93 256.08 164.5 245.67C171.59 250.78 174.41 257.92 177.5 265.67C190.02 270.57 201.51 279.15 209.39 290.13C212.31 294.21 213.62 299.34 216.5 303.21C218.11 287.85 213.76 271.57 206.35 258.17C203.09 252.27 198.41 247.21 195.19 241.5C206 242.33 220.8 253.5 229.5 259.73C225.85 243.15 214.46 225.61 202.77 213.5C208.45 213.46 214.84 217.83 219.75 220.73C232.36 228.16 243.22 237.96 251.34 250.2C254.62 255.15 256.52 260.72 259.5 265.81C260.33 260.23 259.06 253.99 258.35 248.39C257.71 243.45 256.95 238.61 255.61 233.8C255 231.6 253.76 229.52 253.3 227.29C252.94 225.52 253.05 223.87 252.37 222.16C250.97 218.65 248.07 215.66 245.76 212.74C238.16 203.18 228.7 194.19 217.8 188.5C221.35 185.44 234.46 188.25 239.66 187.5C231.29 180.91 220.85 175.89 211.3 171.22C207.29 169.26 202.72 168.01 199.05 165.5C200.79 160.84 202.89 156.41 203.67 151.42C205.89 137.37 202.41 116.65 199.78 102.54C198.84 97.54 197.56 85.43 194.5 82.2ZM569.5 81.99C565.78 89.76 564.94 99.94 563.67 108.44C561.65 121.93 558.58 136.8 560.21 150.47C560.84 155.68 563.14 160.56 564.73 165.5C551.46 173.07 535.9 177.89 523.99 187.75C531.22 187.75 538.46 187.75 545.7 187.75C541.91 191.73 536.55 194.98 532.23 198.71C525.87 204.2 519.54 211.33 514.62 218.14C512.26 221.41 513.08 225.59 511.8 229.37C508.73 238.4 503.59 256.76 505.5 265.83C514.69 244.61 528.79 228.82 549.37 217.87C553.13 215.88 557 213.52 561.11 212.5C558.92 216.87 555.01 220.62 552.11 224.66C546.5 232.49 535.66 251.21 535.45 260.5C544.51 253.74 550.21 248.98 560.91 244.44C563.94 243.15 566.94 241.48 570.13 241.5C560.89 254.23 553.69 266.46 550.54 282.11C549.37 287.89 547.71 295.44 549.5 300.98C558.63 286.06 569.97 271.69 587.06 265.5C589.91 258.47 592.79 249.28 600.5 246.24C599.06 251.96 597.96 257.49 599.2 263.44C601.54 274.68 612.11 282.23 620.38 289.1C625.28 293.18 629.58 297.91 634.36 302.12C641.33 308.25 651.08 315.79 652.67 325.66C653.01 327.79 652.56 329.79 652.5 331.86C657.16 334.45 662.22 334.97 667.5 335.12C667.5 336.35 667.5 337.58 667.5 338.81C677.03 338.93 688.54 333 692.22 323.57C693.15 321.19 691.8 318.96 692.33 316.75C693.45 312.09 698.61 309.98 698.5 302.68C694.28 305.29 690.07 307.89 685.85 310.5C686.73 312.37 687.62 314.24 688.5 316.11C685.71 316.85 683.29 316.03 680.82 314.5C683.96 308.85 688.69 303.64 687.5 296.88C682.28 301.17 676.03 306.68 669.5 308.54C660.09 302.52 652.55 291.3 646.35 282.18C643.71 278.28 640.25 273.87 639.49 269.09C637.56 257.04 656.04 244.6 666.5 243.99C679.17 243.25 693.49 255.3 704.26 261.5C703.58 269.12 700.64 275.83 697.01 282.5C706.34 282.17 711.84 271.29 716.5 264.74C719.79 264.97 722.63 264.85 725.44 266.5C723.59 267.98 720.21 268.33 718.75 270.23C717.54 271.81 717.41 274.37 716.65 276.21C715.46 279.09 713.61 281.64 712.45 284.5C719.88 284.04 725.95 274.52 728.5 268.39C739.33 264.42 739.53 259.4 744.93 250.45C748.56 244.43 753.37 239.96 753.86 232.5C750.24 227.34 743.39 226 737.86 223.58C731.92 220.97 726.24 217.77 720.29 215.21C712.85 212.01 705.09 209.28 697.93 205.5C698.59 201.25 701.73 197.65 700.42 193.17C699.05 188.48 693.75 185.27 690.05 182.46C681.39 175.9 673.23 168.3 664.03 162.47C659.69 159.72 653.31 157.5 651.25 152.78C653.53 152.78 655.8 152.78 658.08 152.78C653.02 142.09 643.94 134.89 635.51 126.99C632.15 123.85 628.63 118.98 624.5 117.33C624.26 120.76 623.11 125.07 623.92 128.45C624.29 129.98 625.77 131.55 626.6 132.88C627.79 134.8 628.87 137.44 630.6 138.93C632.82 140.84 636.25 141.26 638.81 142.66C642.44 144.65 644.27 147.94 646.07 151.5C641.23 151.37 636.08 148.55 631.3 147.3C629.12 146.73 626.06 146.71 624.3 145.22C622.83 143.97 621.85 141.32 620.79 139.71C618.42 136.15 615.96 132.6 613.01 129.5C605.2 121.28 595.75 114.84 588.18 106.29C581.44 98.69 576.54 89.22 569.5 81.99ZM189.5 113.7C191.01 118.96 190.75 124.99 190.82 130.5C191.04 147.04 188.78 160.85 171.5 167.27C168.6 163.94 163.9 158.97 163.2 154.45C162.39 149.22 166 143.52 169.1 139.62C173.53 134.07 178.66 129.11 183.02 123.5C185.43 120.41 187.28 116.92 189.5 113.7ZM575.5 113.71C578.88 117.33 581.1 122.27 584.33 126.2C591.42 134.84 600.51 142.79 601.87 154.5C598.75 158.92 595.62 163.34 592.5 167.76C570.55 159.3 572.23 132.94 575.5 113.71ZM369.5 167.06C369.73 170.15 369.83 173.89 368.22 176.7C366.91 179 363.78 180.6 361.71 182.2C356.6 186.17 350.53 194.07 343.41 192.5C345.62 189.83 347.83 187.17 350.03 184.5C340.33 184.19 329.33 185.14 324.11 174.37C322.32 170.67 322.25 166.4 321.19 162.5C317.21 159.84 311.98 157.18 312.77 151.5C323.87 154.23 333.16 159.41 342.24 166.28C345.91 169.06 352.83 176.44 357.44 176.58C363.45 176.77 366.45 171.11 369.5 167.06ZM453.3 151.5C451.11 158.08 449.46 158.82 443.99 162.5C442.03 173.91 438.5 182.91 425.42 184.68C422.09 185.13 418.79 184.51 415.49 184.5C417.62 187.5 419.75 190.5 421.89 193.5C414.11 192.1 409.72 187.44 403.69 182.84C401.51 181.17 397.88 179.43 396.58 176.94C394.94 173.8 394.89 169.33 396.35 166.5C398.62 171.24 401.34 177.58 408.2 176.52C412.96 175.78 420.26 168.64 424.08 165.56C431.29 159.75 444.13 152.03 453.3 151.5ZM127.22 187.5C124.46 189.82 120.51 191.98 118.54 195.05C115.96 199.08 115.46 203.81 111.64 207.13C103.54 214.17 99.58 208.64 92.61 210.17C89.12 210.94 87.29 214.2 82.5 214.55C84 211.66 86.56 209.5 86.5 206.13C99.96 200.5 109.28 184.4 127.22 187.5ZM682.64 214.5C678.35 214.46 675.1 210.79 671.42 210.12C667.27 209.37 663.08 211.75 658.69 210.69C648.42 208.2 650.07 200.53 645.26 194.25C643.24 191.61 639.56 189.93 637.2 187.5C649.93 186.22 660.67 193.98 670.2 201.33C672.5 203.11 675.99 204.54 677.93 206.64C679.75 208.6 681.3 212.11 682.64 214.5ZM35.16 232.5C34.53 236.4 27.64 245.69 24.5 247.73C22.31 243.85 21.31 240.34 22.5 235.97C25.9 233.35 31.21 231.67 35.16 232.5ZM742.92 236.5C743.29 240.74 742.11 243.83 740.5 247.7C737.55 246.04 729.88 236.07 729.1 232.5C733.36 231.28 739.52 233.47 742.92 236.5ZM295.5 239.85C292.96 245.8 293.09 253.07 291.82 259.46C289.36 271.87 285.65 284.57 280.64 296.19C278.08 302.13 274.09 307.72 270.66 313.19C263.26 324.94 255.18 336.01 245.84 346.31C240.19 352.54 234 358.28 228.34 364.5C228.66 372.43 231.81 380.43 234.63 387.81C241.93 406.95 252.71 424.03 265.88 439.65C270.63 445.28 278.57 455.12 284.5 458.98C283.56 456.14 281.23 453.47 279.66 450.82C276.53 445.57 273.57 440.17 270.73 434.75C263.95 421.77 258.8 407.66 254.8 393.6C253.39 388.63 249.19 375.16 250.03 370.55C250.56 367.63 259.15 359.66 261.5 357C269.91 347.49 276 336.73 283.5 326.62C285.51 330.03 286.01 334.43 287.29 338.28C289.85 346.01 293.18 353.66 297.5 360.57C298.24 356.63 296.85 351.76 296.55 347.63C296.07 341 296.74 334.26 297.41 327.66C299.65 305.72 309.42 273.82 302.73 252.7C301.24 248 298.41 243.78 295.5 239.85ZM469.5 240.07C465.33 246.61 461.87 254.15 460.47 261.81C459.48 267.19 460.07 273.27 460.55 278.68C461.98 294.89 465.51 310.62 467.59 326.72C468.55 334.13 469.22 342.04 468.7 349.5C468.45 353.09 467.48 356.63 467.5 360.19C473.79 352.59 477.83 336.17 481.5 326.76C485.14 331.58 488.12 336.96 491.53 341.96C495.27 347.46 499.64 352.51 503.95 357.56C506.34 360.35 514.08 367.46 514.73 370.65C515.47 374.34 511.36 387.38 510.25 391.63C505.88 408.43 499.11 424.34 491.34 439.83C488.45 445.59 482.05 454.1 480.36 459.5C485.22 456.35 493.74 445.25 497.92 440.39C515.61 419.83 532.03 391.52 536.54 364.5C530.72 357.55 523.65 351.65 517.54 344.95C504.47 330.61 492.2 314.03 484.32 296.23C479.37 285.06 475.22 272.52 473.14 260.48C472.65 257.64 471.03 241.8 470.54 240.78C470.36 240.4 469.76 240.4 469.5 240.07ZM407.89 291.5C394.33 289.55 382.69 280.32 368.48 288.97C368.48 292.1 368.48 295.23 368.48 298.35C377.97 295.69 390.94 296.1 399.5 301.21C402.3 297.97 405.09 294.74 407.89 291.5ZM196.5 349.62C195.91 335.18 195.44 324.47 185.56 312.93C182.82 309.72 178.61 305.38 174.58 304.5C183.04 318.81 185.27 335.39 182.38 351.69C180.54 362.07 176.69 372.14 175.05 382.5C176.15 382.55 179.13 381.64 179.75 382.63C180.53 383.88 179.61 386.6 179.5 387.98C179.26 391.18 179.63 394.34 180.1 397.5C181.58 407.44 185.89 419.38 191.5 427.76C191.99 425.11 191.46 422.46 191.48 419.68C191.53 413.41 192.2 407.06 194.5 401.21C196.33 403.92 196.96 407.28 198.18 410.33C200.18 415.3 202.86 420.26 205.62 424.84C214.62 439.76 227.47 452.67 241 463.5C245.74 467.3 251.01 472.16 256.62 474.5C251.04 465.72 244.11 457.8 238.59 448.89C228.47 432.55 221.46 414.98 215.69 396.73C213.2 388.87 209.41 377.66 209.18 369.49C209.05 364.85 214.43 350.25 215.67 344.34C218.09 332.81 217.6 321.43 215.5 309.92C213.53 313.99 212.87 318.64 211.45 322.94C209.3 329.45 201.72 345.6 196.5 349.62ZM589.5 304.2C577.49 309.47 569.88 324.08 568.19 336.52C567.63 340.65 568.06 344.87 567.5 348.95C560.69 342.24 554.53 328.17 551.47 319.09C550.33 315.71 550.03 312.14 548.5 308.95C545.07 322.73 546.93 336.76 550.27 350.36C551.55 355.55 555.82 364.26 555.53 369.25C555 378.37 551.05 389.92 548.27 398.68C541.22 420.84 531.47 441.61 518.43 460.91C515.5 465.25 512.08 469.23 509.06 473.5C515 472.32 524.05 463.44 528.81 459.33C543.41 446.75 556.24 431.7 564.91 414.4C567.08 410.08 568.43 405.39 570.5 401.02C574.81 408.98 571.78 419.37 572.5 427.85C575.17 424.78 576.5 420.3 578.09 416.54C583.17 404.45 585.26 396.5 583.9 383.38C585.43 383.38 586.97 383.38 588.5 383.38C589.39 373.3 582.85 359.76 581.47 349.19C579.94 337.48 580.58 326.08 584.43 314.86C585.72 311.1 588.13 307.8 589.5 304.2ZM440.5 315.31C435.35 315.76 436.85 319.21 436.89 323.5C436.96 330.3 437.39 337.35 436.5 344.09C431.95 344.09 427.41 344.09 422.86 344.09C422.86 368.14 422.86 392.19 422.86 416.24C427.33 416.24 431.81 416.24 436.28 416.24C437.45 422.48 436.86 429.16 436.83 435.5C436.81 439.91 435.35 443.19 440.5 443.86C442.37 441.27 441.8 437.72 441.77 434.5C441.73 428.36 441.58 422.22 442.22 416.12C446.58 416.12 450.94 416.12 455.3 416.12C455.3 392.07 455.3 368.02 455.3 343.96C450.86 343.96 446.42 343.96 441.99 343.96C441.7 337.48 441.7 330.99 441.83 324.5C441.89 321.32 442.6 317.77 440.5 315.31ZM387.5 366.73C384.03 368.44 385.1 370.75 385.07 374.5C385.03 380.34 385.04 386.17 384.99 392.01C380.42 392.01 375.85 392.01 371.28 392.01C371.28 415.41 371.28 438.81 371.28 462.21C375.75 462.21 380.22 462.21 384.69 462.21C385.13 468.94 384.92 475.75 384.97 482.5C384.99 486.34 384.1 489.25 388.5 489.62C390.59 487.48 389.98 484.45 390.01 481.5C390.08 475.15 389.37 468.27 390.5 462.06C394.95 462.06 399.4 462.06 403.85 462.06C403.85 438.69 403.85 415.33 403.85 391.97C399.4 391.97 394.95 391.97 390.5 391.97C389.58 386.29 390.06 380.27 390.08 374.5C390.09 370.61 391.2 368.32 387.5 366.73ZM333.5 386.01C330.15 387.69 331.1 390.96 331.07 394.5C331.02 401.6 331.5 408.81 330.53 415.84C326 415.84 321.47 415.84 316.93 415.84C316.93 439.59 316.93 463.34 316.93 487.09C321.4 487.09 325.87 487.09 330.34 487.09C331.32 493.41 330.85 500.1 330.86 506.5C330.87 508.37 329.99 512.72 331.16 514.28C331.98 515.39 333.33 514.97 334.5 515.09C336.12 512.58 335.63 509.61 335.68 506.5C335.8 500 335.74 493.52 336.06 487.03C340.57 487.03 345.08 487.03 349.59 487.03C349.59 463.32 349.59 439.62 349.59 415.92C345.12 415.92 340.65 415.92 336.18 415.92C335.53 408.83 335.68 401.62 335.75 394.5C335.79 390.97 336.83 387.67 333.5 386.01Z" fill="#000000" fill-rule="evenodd" stroke="#000000" stroke-width="0.25" stroke-linejoin="round"/>
<path d="M308.5 9.04C323.17 34.88 337.83 60.72 352.5 86.56C358.8 86.9 365.12 84.96 371.5 85.76C375.53 86.27 379.29 89.07 383.45 88.76C386.58 88.52 389.44 86.41 392.51 85.9C398.98 84.82 406.04 86.15 412.5 86.79C427.17 60.93 441.83 35.06 456.5 9.2C468.68 32.25 476.52 56.61 480.07 82.5C481.13 90.17 483.84 99.5 482.55 107.21C481.16 115.53 472.48 126.66 468.73 134.5C471.88 146.57 486.34 162.04 487.5 173.38C482.62 170.82 477.16 168.05 471.66 168.5C477.69 180.24 484.21 192.88 481 206.5C480.21 209.88 479.74 213.56 477.5 216.02C475.83 212.27 474.17 208.52 472.5 204.77C469.59 208.09 468.88 213.87 466.5 218.01C462.05 225.74 453.91 233.77 446.5 238.7C446.73 235.15 449.36 231.61 450.71 228.26C453.94 220.24 457.47 209.77 455.5 201.18C453.91 203.59 452.71 206.05 450.62 208.12C442.59 216.06 435.13 218.2 430.44 229.87C428.25 235.32 426.96 241.63 427.24 247.5C427.48 252.81 429.12 258.15 428.13 263.5C427.66 266.02 426.38 268.46 425.3 270.75C419.95 282.15 412.02 286.47 399.87 281.61C394.94 279.63 390.17 277.04 385.52 274.5C385.52 271.5 385.52 268.5 385.52 265.5C387.89 263.5 390.26 261.5 392.63 259.5C392.06 257.83 391.48 256.17 390.9 254.5C393.58 249.61 397.01 252.83 401.5 252.64C404.47 248.51 406.42 243.65 403.5 239.01C396.74 236.27 387.77 241.64 380.5 241.28C374.39 240.97 367.43 237.21 361.5 238.93C358.27 243.79 360 249.8 364.5 253.15C366.53 252.6 368.57 252.05 370.6 251.5C374.31 253.9 373.98 256 371.89 259.5C374.43 261.6 376.96 263.7 379.5 265.79C379.85 268.22 380.48 271.46 379.32 273.8C377.95 276.58 373.18 277.86 370.56 279.09C361.85 283.19 352.56 287.01 344.9 278.61C340.02 273.25 336.62 264.66 336.8 257.5C336.89 253.79 337.89 250.21 337.83 246.5C337.76 242.4 336.69 237.91 335.48 234C330.99 219.43 323.49 217.91 314.06 208.43C311.84 206.2 310.42 203.41 308.5 200.98C307.11 209.81 310.51 219.54 313.72 227.75C314.99 230.99 316.94 234.11 317.5 237.47C311.05 232.47 304.01 226.82 299.61 219.87C296.78 215.39 295.26 208.51 292.5 204.95C290.85 208.8 289.19 212.65 287.54 216.5C279.34 200.1 285.07 183.5 293.2 168.5C287.55 170.17 281.9 171.83 276.25 173.5C282.99 160.5 289.73 147.5 296.47 134.5C292.73 127.15 284.07 115.2 282.77 107.5C281.51 100.03 283.95 90.95 284.92 83.5C287.76 61.5 295.84 27.4 308.5 9.04ZM307.5 44.22C303.74 47.77 301.38 59.11 300.04 64.5C297.38 75.24 292.66 94.58 294.4 105.25C295.31 110.79 299.7 117.39 303.5 121.32C309.11 114.72 314.72 108.11 320.33 101.5C318.07 94.76 311.68 89.73 311.35 82.5C312.46 82.83 313.58 83.17 314.7 83.5C312.3 70.41 309.9 57.32 307.5 44.22ZM458.5 44.05C456.7 46.69 456.84 50.36 456.37 53.64C455.4 60.51 454.31 67.5 452.6 74.22C452.18 75.87 449.66 82.95 450.46 84.17C451.1 85.15 453.95 84.49 455 84.5C453.15 91.08 447.71 95.52 444.61 101.5C450.58 108.03 456.54 114.56 462.5 121.09C465.67 116.74 469.78 110.79 470.72 105.38C471.83 98.92 470.24 90.86 469.06 84.49C466.51 70.71 463.38 57.24 458.5 44.05ZM194.5 82.2C197.56 85.43 198.84 97.54 199.78 102.54C202.41 116.65 205.89 137.37 203.67 151.42C202.89 156.41 200.79 160.84 199.05 165.5C202.72 168.01 207.29 169.26 211.3 171.22C220.85 175.89 231.29 180.91 239.66 187.5C234.46 188.25 221.35 185.44 217.8 188.5C228.7 194.19 238.16 203.18 245.76 212.74C248.07 215.66 250.97 218.65 252.37 222.16C253.05 223.87 252.94 225.52 253.3 227.29C253.76 229.52 255 231.6 255.61 233.8C256.95 238.61 257.71 243.45 258.35 248.39C259.06 253.99 260.33 260.23 259.5 265.81C256.52 260.72 254.62 255.15 251.34 250.2C243.22 237.96 232.36 228.16 219.75 220.73C214.84 217.83 208.45 213.46 202.77 213.5C214.46 225.61 225.85 243.15 229.5 259.73C220.8 253.5 206 242.33 195.19 241.5C198.41 247.21 203.09 252.27 206.35 258.17C213.76 271.57 218.11 287.85 216.5 303.21C213.62 299.34 212.31 294.21 209.39 290.13C201.51 279.15 190.02 270.57 177.5 265.67C174.41 257.92 171.59 250.78 164.5 245.67C163.93 256.08 168.91 261.01 161.42 271.89C153.06 284 139.94 293.84 128.91 303.43C122.76 308.78 112.4 318.14 111.37 326.7C111.14 328.55 111.51 330.42 111.5 332.23C106.27 334.4 101.24 334.62 95.76 335.5C96.24 337.51 96.48 337.92 95.6 339.5C85.8 338.6 68.98 329.35 72.97 317.5C69.7 313.2 66.06 308.47 66.5 302.96C70.47 306.01 73.93 308.53 78.58 310.5C78.04 312.5 77.51 314.5 76.97 316.5C79.27 315.83 81.58 315.17 83.89 314.5C79.71 309.36 77.12 304.09 76.5 297.37C81.91 298.67 88.15 306.21 94.5 308.47C103.92 301.67 111.6 291.17 118.13 281.66C120.57 278.11 124.16 273.84 124.82 269.45C126.89 255.72 106.44 242.98 94.5 244.05C83.93 245.01 69.59 255.64 60.7 261.5C61.42 269.01 64.59 275.48 67.05 282.5C59.66 280.61 51.62 272.79 49.4 265.5C46.63 265.04 44.36 264.47 42.38 266.5C44.13 267.83 45.87 269.17 47.62 270.5C47.06 276.03 50.43 279.95 52.5 284.7C43.74 282.91 39.13 274.93 35.65 267.5C25.69 266.22 23.47 257.85 19.35 250.15C17.92 247.48 15.36 245.38 13.86 242.63C11.98 239.18 8.9 233.92 11.89 230.39C15.32 226.34 22.86 225.08 27.55 223.08C34.71 220.03 41.61 216.37 48.73 213.22C54.59 210.63 60.87 208.7 66.42 205.5C66.3 200.84 62.85 197.77 64.45 192.9C66.24 187.48 73.2 183.35 77.55 180.03C84.32 174.84 90.85 169.29 97.74 164.25C102.32 160.89 107.35 158.45 111.46 154.5C109.77 153.83 108.08 153.17 106.39 152.5C111.77 142.27 119.55 135.15 127.92 127.43C131.49 124.14 135.01 119.57 139.31 117.5C139.95 120.19 141.21 124.56 140.66 127.34C140.24 129.43 137.82 131.41 136.6 133.12C135.04 135.33 133.78 138.46 131.55 140.08C128.96 141.96 125.39 142.32 122.69 144.18C119.69 146.25 117.93 149.43 116.12 152.5C124.19 150.17 132.25 147.83 140.32 145.5C143.03 140.76 145.66 135.91 149.35 131.83C156.18 124.28 164.87 118.74 171.97 111.47C180.57 102.65 187.59 92.35 194.5 82.2ZM569.5 81.99C576.54 89.22 581.44 98.69 588.18 106.29C595.75 114.84 605.2 121.28 613.01 129.5C615.96 132.6 618.42 136.15 620.79 139.71C621.85 141.32 622.83 143.97 624.3 145.22C626.06 146.71 629.12 146.73 631.3 147.3C636.08 148.55 641.23 151.37 646.07 151.5C644.27 147.94 642.44 144.65 638.81 142.66C636.25 141.26 632.82 140.84 630.6 138.93C628.87 137.44 627.79 134.8 626.6 132.88C625.77 131.55 624.29 129.98 623.92 128.45C623.11 125.07 624.26 120.76 624.5 117.33C628.63 118.98 632.15 123.85 635.51 126.99C643.94 134.89 653.02 142.09 658.08 152.78C655.8 152.78 653.53 152.78 651.25 152.78C653.31 157.5 659.69 159.72 664.03 162.47C673.23 168.3 681.39 175.9 690.05 182.46C693.75 185.27 699.05 188.48 700.42 193.17C701.73 197.65 698.59 201.25 697.93 205.5C705.09 209.28 712.85 212.01 720.29 215.21C726.24 217.77 731.92 220.97 737.86 223.58C743.39 226 750.24 227.34 753.86 232.5C753.37 239.96 748.56 244.43 744.93 250.45C739.53 259.4 739.33 264.42 728.5 268.39C725.95 274.52 719.88 284.04 712.45 284.5C713.61 281.64 715.46 279.09 716.65 276.21C717.41 274.37 717.54 271.81 718.75 270.23C720.21 268.33 723.59 267.98 725.44 266.5C722.63 264.85 719.79 264.97 716.5 264.74C711.84 271.29 706.34 282.17 697.01 282.5C700.64 275.83 703.58 269.12 704.26 261.5C693.49 255.3 679.17 243.25 666.5 243.99C656.04 244.6 637.56 257.04 639.49 269.09C640.25 273.87 643.71 278.28 646.35 282.18C652.55 291.3 660.09 302.52 669.5 308.54C676.03 306.68 682.28 301.17 687.5 296.88C688.69 303.64 683.96 308.85 680.82 314.5C683.29 316.03 685.71 316.85 688.5 316.11C687.62 314.24 686.73 312.37 685.85 310.5C690.07 307.89 694.28 305.29 698.5 302.68C698.61 309.98 693.45 312.09 692.33 316.75C691.8 318.96 693.15 321.19 692.22 323.57C688.54 333 677.03 338.93 667.5 338.81C667.5 337.58 667.5 336.35 667.5 335.12C662.22 334.97 657.16 334.45 652.5 331.86C652.56 329.79 653.01 327.79 652.67 325.66C651.08 315.79 641.33 308.25 634.36 302.12C629.58 297.91 625.28 293.18 620.38 289.1C612.11 282.23 601.54 274.68 599.2 263.44C597.96 257.49 599.06 251.96 600.5 246.24C592.79 249.28 589.91 258.47 587.06 265.5C569.97 271.69 558.63 286.06 549.5 300.98C547.71 295.44 549.37 287.89 550.54 282.11C553.69 266.46 560.89 254.23 570.13 241.5C566.94 241.48 563.94 243.15 560.91 244.44C550.21 248.98 544.51 253.74 535.45 260.5C535.66 251.21 546.5 232.49 552.11 224.66C555.01 220.62 558.92 216.87 561.11 212.5C557 213.52 553.13 215.88 549.37 217.87C528.79 228.82 514.69 244.61 505.5 265.83C503.59 256.76 508.73 238.4 511.8 229.37C513.08 225.59 512.26 221.41 514.62 218.14C519.54 211.33 525.87 204.2 532.23 198.71C536.55 194.98 541.91 191.73 545.7 187.75C538.46 187.75 531.22 187.75 523.99 187.75C535.9 177.89 551.46 173.07 564.73 165.5C563.14 160.56 560.84 155.68 560.21 150.47C558.58 136.8 561.65 121.93 563.67 108.44C564.94 99.94 565.78 89.76 569.5 81.99ZM189.5 113.7C187.28 116.92 185.43 120.41 183.02 123.5C178.66 129.11 173.53 134.07 169.1 139.62C166 143.52 162.39 149.22 163.2 154.45C163.9 158.97 168.6 163.94 171.5 167.27C188.78 160.85 191.04 147.04 190.82 130.5C190.75 124.99 191.01 118.96 189.5 113.7ZM575.5 113.71C572.23 132.94 570.55 159.3 592.5 167.76C595.62 163.34 598.75 158.92 601.87 154.5C600.51 142.79 591.42 134.84 584.33 126.2C581.1 122.27 578.88 117.33 575.5 113.71ZM369.5 167.06C366.45 171.11 363.45 176.77 357.44 176.58C352.83 176.44 345.91 169.06 342.24 166.28C333.16 159.41 323.87 154.23 312.77 151.5C311.98 157.18 317.21 159.84 321.19 162.5C322.25 166.4 322.32 170.67 324.11 174.37C329.33 185.14 340.33 184.19 350.03 184.5C347.83 187.17 345.62 189.83 343.41 192.5C350.53 194.07 356.6 186.17 361.71 182.2C363.78 180.6 366.91 179 368.22 176.7C369.83 173.89 369.73 170.15 369.5 167.06ZM453.3 151.5C444.13 152.03 431.29 159.75 424.08 165.56C420.26 168.64 412.96 175.78 408.2 176.52C401.34 177.58 398.62 171.24 396.35 166.5C394.89 169.33 394.94 173.8 396.58 176.94C397.88 179.43 401.51 181.17 403.69 182.84C409.72 187.44 414.11 192.1 421.89 193.5C419.75 190.5 417.62 187.5 415.49 184.5C418.79 184.51 422.09 185.13 425.42 184.68C438.5 182.91 442.03 173.91 443.99 162.5C449.46 158.82 451.11 158.08 453.3 151.5ZM127.22 187.5C109.28 184.4 99.96 200.5 86.5 206.13C86.56 209.5 84 211.66 82.5 214.55C87.29 214.2 89.12 210.94 92.61 210.17C99.58 208.64 103.54 214.17 111.64 207.13C115.46 203.81 115.96 199.08 118.54 195.05C120.51 191.98 124.46 189.82 127.22 187.5ZM682.64 214.5C681.3 212.11 679.75 208.6 677.93 206.64C675.99 204.54 672.5 203.11 670.2 201.33C660.67 193.98 649.93 186.22 637.2 187.5C639.56 189.93 643.24 191.61 645.26 194.25C650.07 200.53 648.42 208.2 658.69 210.69C663.08 211.75 667.27 209.37 671.42 210.12C675.1 210.79 678.35 214.46 682.64 214.5ZM35.16 232.5C31.21 231.67 25.9 233.35 22.5 235.97C21.31 240.34 22.31 243.85 24.5 247.73C27.64 245.69 34.53 236.4 35.16 232.5ZM742.92 236.5C739.52 233.47 733.36 231.28 729.1 232.5C729.88 236.07 737.55 246.04 740.5 247.7C742.11 243.83 743.29 240.74 742.92 236.5ZM295.5 239.85C298.41 243.78 301.24 248 302.73 252.7C309.42 273.82 299.65 305.72 297.41 327.66C296.74 334.26 296.07 341 296.55 347.63C296.85 351.76 298.24 356.63 297.5 360.57C293.18 353.66 289.85 346.01 287.29 338.28C286.01 334.43 285.51 330.03 283.5 326.62C276 336.73 269.91 347.49 261.5 357C259.15 359.66 250.56 367.63 250.03 370.55C249.19 375.16 253.39 388.63 254.8 393.6C258.8 407.66 263.95 421.77 270.73 434.75C273.57 440.17 276.53 445.57 279.66 450.82C281.23 453.47 283.56 456.14 284.5 458.98C278.57 455.12 270.63 445.28 265.88 439.65C252.71 424.03 241.93 406.95 234.63 387.81C231.81 380.43 228.66 372.43 228.34 364.5C234 358.28 240.19 352.54 245.84 346.31C255.18 336.01 263.26 324.94 270.66 313.19C274.09 307.72 278.08 302.13 280.64 296.19C285.65 284.57 289.36 271.87 291.82 259.46C293.09 253.07 292.96 245.8 295.5 239.85ZM469.5 240.07C469.76 240.4 470.36 240.4 470.54 240.78C471.03 241.8 472.65 257.64 473.14 260.48C475.22 272.52 479.37 285.06 484.32 296.23C492.2 314.03 504.47 330.61 517.54 344.95C523.65 351.65 530.72 357.55 536.54 364.5C532.03 391.52 515.61 419.83 497.92 440.39C493.74 445.25 485.22 456.35 480.36 459.5C482.05 454.1 488.45 445.59 491.34 439.83C499.11 424.34 505.88 408.43 510.25 391.63C511.36 387.38 515.47 374.34 514.73 370.65C514.08 367.46 506.34 360.35 503.95 357.56C499.64 352.51 495.27 347.46 491.53 341.96C488.12 336.96 485.14 331.58 481.5 326.76C477.83 336.17 473.79 352.59 467.5 360.19C467.48 356.63 468.45 353.09 468.7 349.5C469.22 342.04 468.55 334.13 467.59 326.72C465.51 310.62 461.98 294.89 460.55 278.68C460.07 273.27 459.48 267.19 460.47 261.81C461.87 254.15 465.33 246.61 469.5 240.07ZM407.89 291.5C405.09 294.74 402.3 297.97 399.5 301.21C390.94 296.1 377.97 295.69 368.48 298.35C368.48 295.23 368.48 292.1 368.48 288.97C382.69 280.32 394.33 289.55 407.89 291.5ZM196.5 349.62C201.72 345.6 209.3 329.45 211.45 322.94C212.87 318.64 213.53 313.99 215.5 309.92C217.6 321.43 218.09 332.81 215.67 344.34C214.43 350.25 209.05 364.85 209.18 369.49C209.41 377.66 213.2 388.87 215.69 396.73C221.46 414.98 228.47 432.55 238.59 448.89C244.11 457.8 251.04 465.72 256.62 474.5C251.01 472.16 245.74 467.3 241 463.5C227.47 452.67 214.62 439.76 205.62 424.84C202.86 420.26 200.18 415.3 198.18 410.33C196.96 407.28 196.33 403.92 194.5 401.21C192.2 407.06 191.53 413.41 191.48 419.68C191.46 422.46 191.99 425.11 191.5 427.76C185.89 419.38 181.58 407.44 180.1 397.5C179.63 394.34 179.26 391.18 179.5 387.98C179.61 386.6 180.53 383.88 179.75 382.63C179.13 381.64 176.15 382.55 175.05 382.5C176.69 372.14 180.54 362.07 182.38 351.69C185.27 335.39 183.04 318.81 174.58 304.5C178.61 305.38 182.82 309.72 185.56 312.93C195.44 324.47 195.91 335.18 196.5 349.62ZM589.5 304.2C588.13 307.8 585.72 311.1 584.43 314.86C580.58 326.08 579.94 337.48 581.47 349.19C582.85 359.76 589.39 373.3 588.5 383.38C586.97 383.38 585.43 383.38 583.9 383.38C585.26 396.5 583.17 404.45 578.09 416.54C576.5 420.3 575.17 424.78 572.5 427.85C571.78 419.37 574.81 408.98 570.5 401.02C568.43 405.39 567.08 410.08 564.91 414.4C556.24 431.7 543.41 446.75 528.81 459.33C524.05 463.44 515 472.32 509.06 473.5C512.08 469.23 515.5 465.25 518.43 460.91C531.47 441.61 541.22 420.84 548.27 398.68C551.05 389.92 555 378.37 555.53 369.25C555.82 364.26 551.55 355.55 550.27 350.36C546.93 336.76 545.07 322.73 548.5 308.95C550.03 312.14 550.33 315.71 551.47 319.09C554.53 328.17 560.69 342.24 567.5 348.95C568.06 344.87 567.63 340.65 568.19 336.52C569.88 324.08 577.49 309.47 589.5 304.2ZM440.5 315.31C442.6 317.77 441.89 321.32 441.83 324.5C441.7 330.99 441.7 337.48 441.99 343.96C446.42 343.96 450.86 343.96 455.3 343.96C455.3 368.02 455.3 392.07 455.3 416.12C450.94 416.12 446.58 416.12 442.22 416.12C441.58 422.22 441.73 428.36 441.77 434.5C441.8 437.72 442.37 441.27 440.5 443.86C435.35 443.19 436.81 439.91 436.83 435.5C436.86 429.16 437.45 422.48 436.28 416.24C431.81 416.24 427.33 416.24 422.86 416.24C422.86 392.19 422.86 368.14 422.86 344.09C427.41 344.09 431.95 344.09 436.5 344.09C437.39 337.35 436.96 330.3 436.89 323.5C436.85 319.21 435.35 315.76 440.5 315.31ZM387.5 366.73C391.2 368.32 390.09 370.61 390.08 374.5C390.06 380.27 389.58 386.29 390.5 391.97C394.95 391.97 399.4 391.97 403.85 391.97C403.85 415.33 403.85 438.69 403.85 462.06C399.4 462.06 394.95 462.06 390.5 462.06C389.37 468.27 390.08 475.15 390.01 481.5C389.98 484.45 390.59 487.48 388.5 489.62C384.1 489.25 384.99 486.34 384.97 482.5C384.92 475.75 385.13 468.94 384.69 462.21C380.22 462.21 375.75 462.21 371.28 462.21C371.28 438.81 371.28 415.41 371.28 392.01C375.85 392.01 380.42 392.01 384.99 392.01C385.04 386.17 385.03 380.34 385.07 374.5C385.1 370.75 384.03 368.44 387.5 366.73ZM333.5 386.01C336.83 387.67 335.79 390.97 335.75 394.5C335.68 401.62 335.53 408.83 336.18 415.92C340.65 415.92 345.12 415.92 349.59 415.92C349.59 439.62 349.59 463.32 349.59 487.03C345.08 487.03 340.57 487.03 336.06 487.03C335.74 493.52 335.8 500 335.68 506.5C335.63 509.61 336.12 512.58 334.5 515.09C333.33 514.97 331.98 515.39 331.16 514.28C329.99 512.72 330.87 508.37 330.86 506.5C330.85 500.1 331.32 493.41 330.34 487.09C325.87 487.09 321.4 487.09 316.93 487.09C316.93 463.34 316.93 439.59 316.93 415.84C321.47 415.84 326 415.84 330.53 415.84C331.5 408.81 331.02 401.6 331.07 394.5C331.1 390.96 330.15 387.69 333.5 386.01Z" fill="#5bde02" fill-rule="evenodd" stroke="#5bde02" stroke-width="0.25" stroke-linejoin="round"/>
</svg>