<?xml version="1.0" encoding="UTF-8"?>
<svg xmlns="http://www.w3.org/2000/svg" viewBox="0 0 377 399" width="377" height="399">
<path d="M0.13 0.13C125.71 0.13 251.29 0.13 376.88 0.13C376.88 133.04 376.88 265.96 376.88 398.88C251.29 398.88 125.71 398.88 0.13 398.88C0.13 265.96 0.13 133.04 0.13 0.13ZM202.87 8.75C200.49 8.83 194.05 14.24 191.43 15.68C181.97 20.9 163.97 26.82 158.13 35.75C161.58 36.32 166.38 33.93 169.91 33.22C172.53 32.7 175.7 33.35 178.09 32.77C180.62 32.16 183.61 29.47 185.97 28.23C189.1 26.59 193.07 25.2 195.91 23.17C198.59 21.24 202.57 11.94 202.87 8.75ZM236.75 8.98C233.15 9.71 221.73 17.45 217.47 19.71C207.2 25.15 196.28 29.15 185.81 34.06C182.31 35.71 179.24 38.18 175.75 39.76C175.16 39.31 174.85 38.29 174.19 38C171.98 37.05 167.31 39.19 165.1 39.78C156.66 42.04 145.6 43.94 139.28 50.53C136.44 53.5 136.24 57.17 134.14 59.9C133.15 61.17 130.97 62 129.59 62.81C125.4 65.28 120.96 67.74 116.54 69.76C114.29 70.79 111.12 70.69 109.48 72.73C107.79 74.86 108.9 76.78 109.22 79.11C109.86 83.77 109.84 89.95 115.25 91.92C115.75 91.44 116.25 90.96 116.75 90.48C121.13 91.75 122.57 97.7 127.75 98.47C126.92 94.87 126.08 91.26 125.25 87.66C128.62 83.91 131.77 88.63 135.25 86.64C136.88 87.34 138.51 88.05 140.14 88.75C139.41 87.58 138.67 86.42 137.94 85.25C144.12 77.89 148.84 80.81 156.75 81.97C159.8 82.42 163.21 81.91 166.09 82.75C165.32 93.31 160.62 103.4 156.12 112.86C154.44 116.36 153.23 120.94 150.63 123.91C149.34 125.37 146.78 126.6 145.25 127.86C142.92 126.41 140.58 124.96 138.25 123.51C137.95 125.67 139.12 127.22 139.5 129.28C139.87 131.32 138.89 132.74 139.93 134.79C141.65 138.17 146.86 141.58 150.72 140.88C151.71 140.7 152.3 139.78 153.28 139.57C154.68 139.29 155.64 139.57 156.89 138.75C156.86 136.74 155.69 135.44 156.05 133.26C157.68 123.57 164.78 123.97 169.25 118.77C170.29 106.68 176.59 100.96 186.75 94.92C191.54 96.57 195.04 102.7 197.31 106.94C206.27 123.66 200.92 142.3 191.76 157.54C183.84 170.74 172.59 181.57 164.23 194.46C149.79 216.71 140.07 242.87 146.6 269.72C148.69 278.3 151.54 286.19 155.75 293.97C160.6 302.91 167.9 313.68 176.75 319.1C177.24 316.62 175.8 314.15 175.14 311.7C173.68 306.23 172.19 300.75 171.19 295.16C168.29 278.9 167.46 261 172.25 244.98C185.93 199.24 235.46 171.78 231.03 119.25C230.42 112.04 228.66 104.49 225.97 97.77C222.21 88.34 216.74 80.32 209.82 72.92C207.09 70.02 203.06 67.87 200.71 64.75C203.09 62.21 208.73 64.56 211.75 64.67C216.57 64.84 221.35 63.68 226.23 64.18C230.59 64.62 235.66 66.58 239.92 66.25C237.13 59.27 222.24 52.24 215.54 49.71C213.24 48.84 210.3 47.29 207.77 47.52C202.97 47.94 200.72 55.72 192.67 52.75C194.91 46.06 202.61 42.42 208.42 39.68C219.77 34.33 228.92 28.25 234.25 16.49C235.27 14.23 236.8 11.43 236.75 8.98ZM168.52 54.25C167.24 56.72 164.35 57.27 162.34 59.08C155.82 64.99 159.58 66.06 149.25 65.14C147.41 64.97 145.73 65.29 144.27 64.25C150.14 58.63 155.19 56.24 163.23 54.88C165.16 54.55 166.61 53.72 168.52 54.25ZM250.31 110.25C251.6 107.77 247.69 98.61 246.37 95.87C243.3 89.45 234.15 74.16 227.61 71.17C225.26 70.09 218.97 70.32 216.67 71.25C218.08 73.36 220.24 75.34 221.9 77.35C224.96 81.06 227.36 85.32 229.76 89.48C231.17 91.93 232.61 97.96 234.16 99.59C235.7 101.22 241.05 102.73 243.37 104.37C245.67 105.99 247.81 109.21 250.31 110.25ZM122.75 73.13C123.35 75.5 119.24 78.19 117.14 78.75C115.34 75.48 119.48 71.51 122.75 73.13ZM132.75 105.17C133.75 106.95 134.75 108.73 135.75 110.51C136.12 108.51 134.9 105.52 132.75 105.17ZM236.75 108.42C236.15 111.72 237.66 115.8 237.89 119.25C238.33 125.91 238 132.54 236.78 139.1C235.42 146.46 233.95 153.86 231.1 160.81C229.61 164.45 225.72 170.44 225.25 173.97C228.8 172.15 231.95 166.73 234.23 163.46C241.83 152.53 247.41 138.78 245.4 125.26C244.6 119.88 242.27 110.85 236.75 108.42ZM361.75 212.07C368.27 213.82 369.41 211.36 372.21 205.95C372.94 204.55 374.58 202.13 374.24 200.48C373.78 198.26 370.69 196.59 369.21 195.04C365.89 191.56 362.47 186.83 360.13 182.63C358.51 179.71 360.65 173.57 358 168.25C355.72 163.68 350.94 160.79 347.08 157.67C343.09 154.45 339.42 150.3 334.81 147.93C333.7 147.35 332.56 147.77 331.46 147.28C328.71 146.04 325.82 141.75 323.61 139.65C318.12 134.42 312.22 129.71 306.54 124.71C302.46 121.11 298.64 117.29 294.66 113.58C293.29 112.3 291.64 109.74 289.93 109.25C286.63 118.91 297.42 132.54 304.09 138.66C308.25 142.48 313.6 147 312.75 153.23C305.63 153.6 305.59 147.06 301.64 145.08C299.91 144.22 296.65 144.79 294.75 144.86C289.94 145.02 276.07 146.33 272.71 149.75C274.71 151.89 288.29 151.9 291.3 156.25C289.06 158.43 280.02 161.14 276.48 163.25C267.52 168.59 260.49 176.44 254.93 185.18C241.71 205.92 245.76 231.3 256.2 252.07C264.67 268.94 276.22 284.57 273.79 304.65C271.87 320.49 263.68 334.61 252.42 345.67C248.6 349.42 244.46 352.75 240.12 355.87C238.44 357.08 235.14 358.39 234.66 360.25C240.71 359.8 247.03 356.65 252.53 354.29C278.93 342.94 297.68 315.91 293.74 286.53C291.02 266.23 277.75 250.25 273.19 230.64C268.92 212.3 276.05 193.07 293.49 184.72C296.74 183.17 301.63 181.05 305.25 181.27C305.51 187.56 298.52 190.69 304.09 198.16C306.78 201.76 311.2 202.62 315.09 204.21C322.39 207.19 331.53 216.75 326.86 224.75C327.84 226.39 329.08 226.66 330.59 227.67C331.48 228.26 332.18 229.32 333.27 229.55C335.94 230.11 341.62 228.39 343.13 225.88C343.62 225.05 343.48 224.05 343.95 223.21C344.77 221.76 346.01 220.85 346.7 219.25C343.68 218.71 340.1 219.73 337.42 217.81C335.84 216.67 335.39 213.78 334.68 212.07C332.45 206.68 330.16 201.14 327.75 195.84C326.58 195.84 325.42 195.84 324.25 195.84C322.71 188.21 330.58 190.21 335.24 191.11C343.87 192.79 342.85 196.47 348.21 201.04C350.81 203.26 354.51 203.68 356.4 206.75C356.04 210.02 353.4 211.96 351.36 214.25C354.53 216.5 358.73 213.29 361.75 212.07ZM93.75 109.39C91.19 110.62 89.46 113.68 87.47 115.71C83.02 120.23 78.26 124.58 73.46 128.71C68.37 133.11 63.15 137.4 58.23 141.97C56.56 143.53 54.57 146.82 52.55 147.76C51.73 148.14 50.8 147.91 49.96 148.24C47.88 149.05 45.71 151.32 43.87 152.61C38.3 156.54 30.66 161.44 27.06 167.32C25.79 169.4 24.04 173.25 24.18 175.71C24.27 177.52 25.03 178.85 24.51 180.73C23.2 185.4 18.6 191.06 15.56 194.81C14.02 196.72 11 197.99 10.28 200.51C9.62 202.79 12.81 209.22 14.36 210.91C15.68 212.36 17.92 213.37 19.75 213.93C26.02 211.25 26.67 216.12 33.49 214.75C31.54 212.34 28.95 210.6 28.24 207.25C30.08 203.84 34.01 202.85 36.91 200.66C42.26 196.63 41.51 193.31 49.42 191.23C53.92 190.05 61.83 188.31 59.75 195.49C58.75 195.77 57.75 196.04 56.75 196.31C53.97 201.53 51.87 207.64 49.34 213.09C48.5 214.9 47.9 217.7 45.93 218.67C43.42 219.9 40.5 218.4 38.01 219.25C38.46 221.04 39.9 221.46 40.74 223C41.21 223.86 41.02 224.86 41.5 225.7C44.87 231.53 53.78 229.69 57.11 225.25C56.74 223.68 55.94 222.48 55.98 220.75C56.11 214.93 62.25 207.59 67.4 205.19C73.38 202.4 80.65 201.09 81.79 193.14C82.31 189.5 79.76 185.44 78.32 182.25C82.74 181.21 88.57 183.61 92.45 185.77C105.47 193.05 112.45 206.38 112.15 221.25C111.79 239.25 99.88 253.72 94.39 270.17C83.92 301.54 94.93 330.74 122.52 348.25C129.23 352.5 136.87 356.07 144.52 358.25C147.06 358.98 150.3 360.47 152.87 359.75C150.23 356.52 139.58 350.57 135.38 346.85C122.39 335.32 112.3 319.46 111.19 301.74C109.73 278.3 122.92 263.16 131.8 243.09C138.04 229.01 139.39 212.63 134.79 197.9C130.5 184.18 120.69 171.8 108.5 164.26C105.38 162.33 94.13 158.39 92.73 156.75C96.47 151.87 106.07 152.75 110.75 150.34C107.74 146.55 93.44 145.45 88.75 145.35C86.82 145.31 83.83 144.91 82.08 145.82C78.17 147.82 76.53 155.07 70.48 153.75C72.18 143.86 80.8 138.75 86.76 131.51C89.96 127.62 91.17 123.52 92.55 118.78C93.38 115.91 94.39 112.31 93.75 109.39ZM316.75 115.96C315.74 130.14 329.84 139.16 340.08 146.18C342.83 148.07 345.31 150.75 348.25 152.23C348.3 148.67 345.38 144.78 343.14 142.12C337.67 135.61 331.11 130.14 325.13 124.12C322.78 121.76 319.77 117.06 316.75 115.96ZM67.25 116.58C64.42 117.18 61.07 122.85 58.82 125.07C52.04 131.76 44.02 137.53 38.84 145.61C37.4 147.86 35.28 150.56 35.25 153.25C38.35 152.32 41.29 148.15 44.05 146.3C46.09 144.93 48.6 144.16 50.56 142.79C52.13 141.69 53.25 139.74 54.68 138.44C61.63 132.14 67.27 126.95 67.25 116.58ZM273.16 159.75C264.53 158.98 254.59 169.6 251.27 176.75C253.35 176.72 255.47 174.26 257.12 172.86C260.47 170.03 263.52 166.94 267.01 164.26C269 162.74 271.53 161.64 273.16 159.75ZM111.25 160.21C117.1 164.39 122.94 168.57 128.79 172.75C128.42 165.7 117.46 160.1 111.25 160.21ZM51.75 163.99C51.81 166.01 50.02 167.12 49.15 168.88C46.07 175.09 48.06 177.76 39.75 179.99C37.99 180.46 37.1 181.14 35.29 180.75C37.25 175.66 46.2 164.52 51.75 163.99ZM332.75 164.01C338.02 164.4 347.25 175.22 348.44 180.25C346.86 180.39 345.78 179.41 344.23 179.05C335.47 177.05 338.09 175.68 335.38 168.86C334.67 167.1 332.82 165.86 332.75 164.01ZM20.89 197.25C23.11 199.33 20.41 202.56 18.25 203.56C16.53 201.14 17.49 197.33 20.89 197.25ZM366.25 202.84C364.94 202.53 363.22 200.64 362.65 199.25C363.15 198.58 363.64 197.92 364.14 197.25C366.87 197.61 367.93 200.78 366.25 202.84ZM236.75 255.3C233.92 256.89 235.78 270.87 234.75 274.73C232.13 274.73 229.52 274.73 226.9 274.73C226.9 289.15 226.9 303.57 226.9 317.99C229.52 318.39 232.13 318.78 234.75 319.17C235.3 322.15 233.64 333.14 236.93 333.25C239 331.56 237.66 322.28 238.25 319.18C240.88 318.78 243.5 318.38 246.13 317.98C246.13 303.54 246.13 289.11 246.13 274.67C243.59 274.67 241.05 274.67 238.5 274.67C237.31 270.51 237.85 265.1 237.89 260.75C237.91 258.71 238.59 256.46 236.75 255.3ZM207.09 288.25C206.28 288.19 205.4 287.76 204.79 288.54C203.11 290.66 204.8 301.23 203.75 304.79C201.18 304.79 198.61 304.79 196.04 304.79C196.04 318.83 196.04 332.86 196.04 346.9C198.61 347.18 201.18 347.47 203.75 347.75C205 352.38 202.81 362.17 204.3 365.46C204.77 366.49 205.76 366.29 206.65 366.25C207.01 360.12 207.38 353.99 207.75 347.87C210.19 347.58 212.63 347.29 215.07 347C215.07 333.06 215.07 319.12 215.07 305.19C212.41 304.87 209.75 304.56 207.09 304.25C207.09 298.92 207.09 293.58 207.09 288.25ZM176.75 327.19C176.33 329.54 175.91 331.9 175.49 334.25C173.01 334.51 170.53 334.76 168.05 335.02C168.05 348.72 168.05 362.41 168.05 376.11C170.45 376.11 172.85 376.11 175.25 376.11C176.78 379.41 174.26 388.63 177.25 390.07C180.42 388.1 178.01 380.11 178.92 376.75C181.44 376.43 183.95 376.11 186.47 375.8C186.47 362.04 186.47 348.28 186.47 334.53C184.06 334.53 181.66 334.53 179.25 334.53C178.68 332.31 179.35 327.74 176.75 327.19Z" fill="#000000" fill-rule="evenodd" stroke="#000000" stroke-width="0.25" stroke-linejoin="round"/>
<path d="M202.87 8.75C202.57 11.94 198.59 21.24 195.91 23.17C193.07 25.2 189.1 26.59 185.97 28.23C183.61 29.47 180.62 32.16 178.09 32.77C175.7 33.35 172.53 32.7 169.91 33.22C166.38 33.93 161.58 36.32 158.13 35.75C163.97 26.82 181.97 20.9 191.43 15.68C194.05 14.24 200.49 8.83 202.87 8.75ZM236.75 8.98C236.8 11.43 235.27 14.23 234.25 16.49C228.92 28.25 219.77 34.33 208.42 39.68C202.61 42.42 194.91 46.06 192.67 52.75C200.72 55.72 202.97 47.94 207.77 47.52C210.3 47.29 213.24 48.84 215.54 49.71C222.24 52.24 237.13 59.27 239.92 66.25C235.66 66.58 230.59 64.62 226.23 64.18C221.35 63.68 216.57 64.84 211.75 64.67C208.73 64.56 203.09 62.21 200.71 64.75C203.06 67.87 207.09 70.02 209.82 72.92C216.74 80.32 222.21 88.34 225.97 97.77C228.66 104.49 230.42 112.04 231.03 119.25C235.46 171.78 185.93 199.24 172.25 244.98C167.46 261 168.29 278.9 171.19 295.16C172.19 300.75 173.68 306.23 175.14 311.7C175.8 314.15 177.24 316.62 176.75 319.1C167.9 313.68 160.6 302.91 155.75 293.97C151.54 286.19 148.69 278.3 146.6 269.72C140.07 242.87 149.79 216.71 164.23 194.46C172.59 181.57 183.84 170.74 191.76 157.54C200.92 142.3 206.27 123.66 197.31 106.94C195.04 102.7 191.54 96.57 186.75 94.92C176.59 100.96 170.29 106.68 169.25 118.77C164.78 123.97 157.68 123.57 156.05 133.26C155.69 135.44 156.86 136.74 156.89 138.75C155.64 139.57 154.68 139.29 153.28 139.57C152.3 139.78 151.71 140.7 150.72 140.88C146.86 141.58 141.65 138.17 139.93 134.79C138.89 132.74 139.87 131.32 139.5 129.28C139.12 127.22 137.95 125.67 138.25 123.51C140.58 124.96 142.92 126.41 145.25 127.86C146.78 126.6 149.34 125.37 150.63 123.91C153.23 120.94 154.44 116.36 156.12 112.86C160.62 103.4 165.32 93.31 166.09 82.75C163.21 81.91 159.8 82.42 156.75 81.97C148.84 80.81 144.12 77.89 137.94 85.25C138.67 86.42 139.41 87.58 140.14 88.75C138.51 88.05 136.88 87.34 135.25 86.64C131.77 88.63 128.62 83.91 125.25 87.66C126.08 91.26 126.92 94.87 127.75 98.47C122.57 97.7 121.13 91.75 116.75 90.48C116.25 90.96 115.75 91.44 115.25 91.92C109.84 89.95 109.86 83.77 109.22 79.11C108.9 76.78 107.79 74.86 109.48 72.73C111.12 70.69 114.29 70.79 116.54 69.76C120.96 67.74 125.4 65.28 129.59 62.81C130.97 62 133.15 61.17 134.14 59.9C136.24 57.17 136.44 53.5 139.28 50.53C145.6 43.94 156.66 42.04 165.1 39.78C167.31 39.19 171.98 37.05 174.19 38C174.85 38.29 175.16 39.31 175.75 39.76C179.24 38.18 182.31 35.71 185.81 34.06C196.28 29.15 207.2 25.15 217.47 19.71C221.73 17.45 233.15 9.71 236.75 8.98ZM168.52 54.25C166.61 53.72 165.16 54.55 163.23 54.88C155.19 56.24 150.14 58.63 144.27 64.25C145.73 65.29 147.41 64.97 149.25 65.14C159.58 66.06 155.82 64.99 162.34 59.08C164.35 57.27 167.24 56.72 168.52 54.25ZM250.31 110.25C247.81 109.21 245.67 105.99 243.37 104.37C241.05 102.73 235.7 101.22 234.16 99.59C232.61 97.96 231.17 91.93 229.76 89.48C227.36 85.32 224.96 81.06 221.9 77.35C220.24 75.34 218.08 73.36 216.67 71.25C218.97 70.32 225.26 70.09 227.61 71.17C234.15 74.16 243.3 89.45 246.37 95.87C247.69 98.61 251.6 107.77 250.31 110.25ZM122.75 73.13C119.48 71.51 115.34 75.48 117.14 78.75C119.24 78.19 123.35 75.5 122.75 73.13ZM132.75 105.17C134.9 105.52 136.12 108.51 135.75 110.51C134.75 108.73 133.75 106.95 132.75 105.17ZM236.75 108.42C242.27 110.85 244.6 119.88 245.4 125.26C247.41 138.78 241.83 152.53 234.23 163.46C231.95 166.73 228.8 172.15 225.25 173.97C225.72 170.44 229.61 164.45 231.1 160.81C233.95 153.86 235.42 146.46 236.78 139.1C238 132.54 238.33 125.91 237.89 119.25C237.66 115.8 236.15 111.72 236.75 108.42ZM361.75 212.07C358.73 213.29 354.53 216.5 351.36 214.25C353.4 211.96 356.04 210.02 356.4 206.75C354.51 203.68 350.81 203.26 348.21 201.04C342.85 196.47 343.87 192.79 335.24 191.11C330.58 190.21 322.71 188.21 324.25 195.84C325.42 195.84 326.58 195.84 327.75 195.84C330.16 201.14 332.45 206.68 334.68 212.07C335.39 213.78 335.84 216.67 337.42 217.81C340.1 219.73 343.68 218.71 346.7 219.25C346.01 220.85 344.77 221.76 343.95 223.21C343.48 224.05 343.62 225.05 343.13 225.88C341.62 228.39 335.94 230.11 333.27 229.55C332.18 229.32 331.48 228.26 330.59 227.67C329.08 226.66 327.84 226.39 326.86 224.75C331.53 216.75 322.39 207.19 315.09 204.21C311.2 202.62 306.78 201.76 304.09 198.16C298.52 190.69 305.51 187.56 305.25 181.27C301.63 181.05 296.74 183.17 293.49 184.72C276.05 193.07 268.92 212.3 273.19 230.64C277.75 250.25 291.02 266.23 293.74 286.53C297.68 315.91 278.93 342.94 252.53 354.29C247.03 356.65 240.71 359.8 234.66 360.25C235.14 358.39 238.44 357.08 240.12 355.87C244.46 352.75 248.6 349.42 252.42 345.67C263.68 334.61 271.87 320.49 273.79 304.65C276.22 284.57 264.67 268.94 256.2 252.07C245.76 231.3 241.71 205.92 254.93 185.18C260.49 176.44 267.52 168.59 276.48 163.25C280.02 161.14 289.06 158.43 291.3 156.25C288.29 151.9 274.71 151.89 272.71 149.75C276.07 146.33 289.94 145.02 294.75 144.86C296.65 144.79 299.91 144.22 301.64 145.08C305.59 147.06 305.63 153.6 312.75 153.23C313.6 147 308.25 142.48 304.09 138.66C297.42 132.54 286.63 118.91 289.93 109.25C291.64 109.74 293.29 112.3 294.66 113.58C298.64 117.29 302.46 121.11 306.54 124.71C312.22 129.71 318.12 134.42 323.61 139.65C325.82 141.75 328.71 146.04 331.46 147.28C332.56 147.77 333.7 147.35 334.81 147.93C339.42 150.3 343.09 154.45 347.08 157.67C350.94 160.79 355.72 163.68 358 168.25C360.65 173.57 358.51 179.71 360.13 182.63C362.47 186.83 365.89 191.56 369.21 195.04C370.69 196.59 373.78 198.26 374.24 200.48C374.58 202.13 372.94 204.55 372.21 205.95C369.41 211.36 368.27 213.82 361.75 212.07ZM93.75 109.39C94.39 112.31 93.38 115.91 92.55 118.78C91.17 123.52 89.96 127.62 86.76 131.51C80.8 138.75 72.18 143.86 70.48 153.75C76.53 155.07 78.17 147.82 82.08 145.82C83.83 144.91 86.82 145.31 88.75 145.35C93.44 145.45 107.74 146.55 110.75 150.34C106.07 152.75 96.47 151.87 92.73 156.75C94.13 158.39 105.38 162.33 108.5 164.26C120.69 171.8 130.5 184.18 134.79 197.9C139.39 212.63 138.04 229.01 131.8 243.09C122.92 263.16 109.73 278.3 111.19 301.74C112.3 319.46 122.39 335.32 135.38 346.85C139.58 350.57 150.23 356.52 152.87 359.75C150.3 360.47 147.06 358.98 144.52 358.25C136.87 356.07 129.23 352.5 122.52 348.25C94.93 330.74 83.92 301.54 94.39 270.17C99.88 253.72 111.79 239.25 112.15 221.25C112.45 206.38 105.47 193.05 92.45 185.77C88.57 183.61 82.74 181.21 78.32 182.25C79.76 185.44 82.31 189.5 81.79 193.14C80.65 201.09 73.38 202.4 67.4 205.19C62.25 207.59 56.11 214.93 55.98 220.75C55.94 222.48 56.74 223.68 57.11 225.25C53.78 229.69 44.87 231.53 41.5 225.7C41.02 224.86 41.21 223.86 40.74 223C39.9 221.46 38.46 221.04 38.01 219.25C40.5 218.4 43.42 219.9 45.93 218.67C47.9 217.7 48.5 214.9 49.34 213.09C51.87 207.64 53.97 201.53 56.75 196.31C57.75 196.04 58.75 195.77 59.75 195.49C61.83 188.31 53.92 190.05 49.42 191.23C41.51 193.31 42.26 196.63 36.91 200.66C34.01 202.85 30.08 203.84 28.24 207.25C28.95 210.6 31.54 212.34 33.49 214.75C26.67 216.12 26.02 211.25 19.75 213.93C17.92 213.37 15.68 212.36 14.36 210.91C12.81 209.22 9.62 202.79 10.28 200.51C11 197.99 14.02 196.72 15.56 194.81C18.6 191.06 23.2 185.4 24.51 180.73C25.03 178.85 24.27 177.52 24.18 175.71C24.04 173.25 25.79 169.4 27.06 167.32C30.66 161.44 38.3 156.54 43.87 152.61C45.71 151.32 47.88 149.05 49.96 148.24C50.8 147.91 51.73 148.14 52.55 147.76C54.57 146.82 56.56 143.53 58.23 141.97C63.15 137.4 68.37 133.11 73.46 128.71C78.26 124.58 83.02 120.23 87.47 115.71C89.46 113.68 91.19 110.62 93.75 109.39ZM316.75 115.96C319.77 117.06 322.78 121.76 325.13 124.12C331.11 130.14 337.67 135.61 343.14 142.12C345.38 144.78 348.3 148.67 348.25 152.23C345.31 150.75 342.83 148.07 340.08 146.18C329.84 139.16 315.74 130.14 316.75 115.96ZM67.25 116.58C67.27 126.95 61.63 132.14 54.68 138.44C53.25 139.74 52.13 141.69 50.56 142.79C48.6 144.16 46.09 144.93 44.05 146.3C41.29 148.15 38.35 152.32 35.25 153.25C35.28 150.56 37.4 147.86 38.84 145.61C44.02 137.53 52.04 131.76 58.82 125.07C61.07 122.85 64.42 117.18 67.25 116.58ZM273.16 159.75C271.53 161.64 269 162.74 267.01 164.26C263.52 166.94 260.47 170.03 257.12 172.86C255.47 174.26 253.35 176.72 251.27 176.75C254.59 169.6 264.53 158.98 273.16 159.75ZM111.25 160.21C117.46 160.1 128.42 165.7 128.79 172.75C122.94 168.57 117.1 164.39 111.25 160.21ZM51.75 163.99C46.2 164.52 37.25 175.66 35.29 180.75C37.1 181.14 37.99 180.46 39.75 179.99C48.06 177.76 46.07 175.09 49.15 168.88C50.02 167.12 51.81 166.01 51.75 163.99ZM332.75 164.01C332.82 165.86 334.67 167.1 335.38 168.86C338.09 175.68 335.47 177.05 344.23 179.05C345.78 179.41 346.86 180.39 348.44 180.25C347.25 175.22 338.02 164.4 332.75 164.01ZM20.89 197.25C17.49 197.33 16.53 201.14 18.25 203.56C20.41 202.56 23.11 199.33 20.89 197.25ZM366.25 202.84C367.93 200.78 366.87 197.61 364.14 197.25C363.64 197.92 363.15 198.58 362.65 199.25C363.22 200.64 364.94 202.53 366.25 202.84ZM236.75 255.3C238.59 256.46 237.91 258.71 237.89 260.75C237.85 265.1 237.31 270.51 238.5 274.67C241.05 274.67 243.59 274.67 246.13 274.67C246.13 289.11 246.13 303.54 246.13 317.98C243.5 318.38 240.88 318.78 238.25 319.18C237.66 322.28 239 331.56 236.93 333.25C233.64 333.14 235.3 322.15 234.75 319.17C232.13 318.78 229.52 318.39 226.9 317.99C226.9 303.57 226.9 289.15 226.9 274.73C229.52 274.73 232.13 274.73 234.75 274.73C235.78 270.87 233.92 256.89 236.75 255.3ZM207.09 288.25C207.09 293.58 207.09 298.92 207.09 304.25C209.75 304.56 212.41 304.87 215.07 305.19C215.07 319.12 215.07 333.06 215.07 347C212.63 347.29 210.19 347.58 207.75 347.87C207.38 353.99 207.01 360.12 206.65 366.25C205.76 366.29 204.77 366.49 204.3 365.46C202.81 362.17 205 352.38 203.75 347.75C201.18 347.47 198.61 347.18 196.04 346.9C196.04 332.86 196.04 318.83 196.04 304.79C198.61 304.79 201.18 304.79 203.75 304.79C204.8 301.23 203.11 290.66 204.79 288.54C205.4 287.76 206.28 288.19 207.09 288.25ZM176.75 327.19C179.35 327.74 178.68 332.31 179.25 334.53C181.66 334.53 184.06 334.53 186.47 334.53C186.47 348.28 186.47 362.04 186.47 375.8C183.95 376.11 181.44 376.43 178.92 376.75C178.01 380.11 180.42 388.1 177.25 390.07C174.26 388.63 176.78 379.41 175.25 376.11C172.85 376.11 170.45 376.11 168.05 376.11C168.05 362.41 168.05 348.72 168.05 335.02C170.53 334.76 173.01 334.51 175.49 334.25C175.91 331.9 176.33 329.54 176.75 327.19Z" fill="#67f804" fill-rule="evenodd" stroke="#67f804" stroke-width="0.25" stroke-linejoin="round"/>
</svg>