<?xml version="1.0" encoding="UTF-8"?>
<svg xmlns="http://www.w3.org/2000/svg" viewBox="0 0 299 382" width="299" height="382">
<path d="M0.13 0.13C99.71 0.13 199.29 0.13 298.88 0.13C298.88 127.38 298.88 254.63 298.88 381.88C199.29 381.88 99.71 381.88 0.13 381.88C0.13 254.63 0.13 127.38 0.13 0.13ZM130.03 40.43C126.29 43.54 121.1 58.55 119.34 63.63C112.92 82.23 110.25 102 111.23 121.68C111.64 130.08 112.45 138.4 113.33 146.77C113.68 150.15 114.98 154.38 114.5 157.74C114.07 160.75 110 164.54 108.32 167.07C103.62 174.12 91.2 189.49 90.21 197.33C88.91 207.66 89.96 223.45 90.15 234.25C90.2 237.35 88.89 244.21 90.75 246.51C94.03 244.26 96.63 240.49 99.31 237.56C105.13 231.19 117.3 217.9 125.25 215.14C127.17 221.68 129.09 228.21 131.01 234.75C134.09 234.74 137.17 234.74 140.25 234.73C140.82 230.13 136.28 215.67 135.04 210.24C130.98 192.4 127.61 174.35 124.91 156.25C121.39 132.65 119.5 107.78 124.57 84.27C126.1 77.18 128.24 69.97 131.04 63.28C132.63 59.48 134.99 55.54 136.06 51.6C141.87 44.46 144.52 33.6 152.25 27.96C159.18 32.05 165.71 48.03 169.99 55C171.63 62.09 175.79 68.84 177.75 75.98C182.08 91.8 183.37 108.35 182.78 124.73C181.79 151.77 175.93 178.72 170.8 205.15C169.35 212.66 167.66 220.2 165.81 227.63C165.27 229.8 164.38 232.07 164.25 234.31C166.35 235.55 170.84 235.33 173.25 234.69C175.25 228.13 177.25 221.58 179.25 215.03C187.83 217.91 199.12 231.08 205.63 237.62C208.03 240.02 211.12 245.05 214.25 246C214.87 242.78 214.42 239.08 214.47 235.75C214.62 226.75 214.48 217.75 214.46 208.75C214.45 203.38 215.44 197.3 212.86 192.38C208.37 183.82 202.1 176.02 196.74 168C194.87 165.21 190.46 161.05 189.89 157.75C189.37 154.74 190.59 151.25 190.89 148.25C191.62 140.91 192.33 133.6 192.8 126.23C193.97 107.65 192.53 88.38 187.24 70.55C185.91 66.08 182.04 51.68 178.91 49.01C178.58 45.74 175.71 42.05 174.16 39.12C170 31.22 159.6 14.58 152.25 9.83C146.45 13.71 138.6 25.9 134.73 31.99C133.12 34.53 130.65 37.52 130.03 40.43ZM215.57 84.05C215.57 87.95 215.57 91.85 215.57 95.75C227.26 100 237.94 110.01 246.52 118.72C287.45 160.27 292.79 225.03 264.69 274.94C257.04 288.54 246.45 300.77 234.39 310.65C230.26 314.04 218.01 320.89 215.75 323.72C217.49 326.4 219.22 329.07 220.96 331.75C225.74 331.06 231.24 326.16 235.12 323.37C247.08 314.75 257.95 304.25 266.27 292.02C300.26 242.1 302.56 179.06 268.25 128.5C258.64 114.34 246.34 102.08 232.04 92.7C227.49 89.71 221.12 84.25 215.57 84.05ZM88.99 85.1C84.47 85.46 75.49 92.02 71.64 94.89C56.58 106.12 43.53 119.38 33.74 135.5C1.11 189.22 6.58 255.14 47.65 302.6C56.33 312.64 71.67 327.16 84.25 331.62C85.88 328.83 87.51 326.04 89.15 323.25C87.08 320.76 83.37 319.3 80.62 317.64C77.4 315.7 74.43 313.11 71.54 310.72C59.69 300.92 48.84 289.52 41.26 276.01C15.47 230.02 17.44 174.17 49.2 131.43C60.89 115.72 73.41 107.26 88.99 96.23C88.99 92.52 88.99 88.81 88.99 85.1ZM149.79 91.63C128.6 95.45 133.5 128.46 155.74 124.43C175.53 120.85 170.59 87.88 149.79 91.63ZM166.75 245.18C157.42 245.18 148.08 245.18 138.75 245.18C134.94 252.77 135.93 263.02 135.93 271.25C135.94 274.84 135.36 279 136.25 282.47C138.75 278.95 141.25 275.44 143.75 271.92C145.26 273.95 144.72 278.17 144.79 280.75C144.95 287.45 145.45 294.08 145.79 300.76C146.61 317.17 148.19 333.54 149.77 349.87C150.59 358.37 149.92 367.48 152.25 375.72C155.25 341.11 158.25 306.51 161.25 271.9C165.08 273.09 165.56 279.73 168.75 282.03C170.61 272.02 168.89 255.25 166.75 245.18ZM124.25 268.6C121.82 270.18 114.38 277.59 113.39 280.21C112.18 283.43 113.32 288.81 113.23 292.27C113.03 300.77 112.53 309.28 110.8 317.63C108.52 328.58 104.32 338.84 98.71 348.47C96.44 352.38 92.63 355.74 90.73 359.75C94.1 359.65 102.85 350.26 105.29 347.55C119.34 331.92 125.58 310.55 125.13 289.75C125.01 284.58 125.3 279.42 125.06 274.25C124.97 272.44 125.45 269.81 124.25 268.6ZM180.25 268.93C179.1 270.39 179.53 273.27 179.48 275.25C179.36 280.56 179.35 285.93 179.39 291.25C179.56 311.77 184.53 332.07 198.95 347.32C202.21 350.76 209.21 358.44 213.75 359.37C211.51 355.98 208.53 352.97 206.18 349.6C199.53 340.04 195.2 327.96 193.24 316.56C191.87 308.62 191.2 300.32 191.09 292.25C191.05 288.69 192.22 283.18 190.85 279.88C189.78 277.31 182.63 270.55 180.25 268.93Z" fill="#000000" fill-rule="evenodd" stroke="#000000" stroke-width="0.25" stroke-linejoin="round"/>
<path d="M130.03 40.43C129.86 41.37 129.7 42.31 129.53 43.25C130.6 43.17 131.68 43.1 132.75 43.02C133.81 45.08 134.65 50.64 136.06 51.6C134.99 55.54 132.63 59.48 131.04 63.28C128.24 69.97 126.1 77.18 124.57 84.27C119.5 107.78 121.39 132.65 124.91 156.25C127.61 174.35 130.98 192.4 135.04 210.24C136.28 215.67 140.82 230.13 140.25 234.73C137.17 234.74 134.09 234.74 131.01 234.75C129.09 228.21 127.17 221.68 125.25 215.14C117.3 217.9 105.13 231.19 99.31 237.56C96.63 240.49 94.03 244.26 90.75 246.51C88.89 244.21 90.2 237.35 90.15 234.25C89.96 223.45 88.91 207.66 90.21 197.33C91.2 189.49 103.62 174.12 108.32 167.07C110 164.54 114.07 160.75 114.5 157.74C114.98 154.38 113.68 150.15 113.33 146.77C112.45 138.4 111.64 130.08 111.23 121.68C110.25 102 112.92 82.23 119.34 63.63C121.1 58.55 126.29 43.54 130.03 40.43ZM178.91 49.01C182.04 51.68 185.91 66.08 187.24 70.55C192.53 88.38 193.97 107.65 192.8 126.23C192.33 133.6 191.62 140.91 190.89 148.25C190.59 151.25 189.37 154.74 189.89 157.75C190.46 161.05 194.87 165.21 196.74 168C202.1 176.02 208.37 183.82 212.86 192.38C215.44 197.3 214.45 203.38 214.46 208.75C214.48 217.75 214.62 226.75 214.47 235.75C214.42 239.08 214.87 242.78 214.25 246C211.12 245.05 208.03 240.02 205.63 237.62C199.12 231.08 187.83 217.91 179.25 215.03C177.25 221.58 175.25 228.13 173.25 234.69C170.84 235.33 166.35 235.55 164.25 234.31C164.38 232.07 165.27 229.8 165.81 227.63C167.66 220.2 169.35 212.66 170.8 205.15C175.93 178.72 181.79 151.77 182.78 124.73C183.37 108.35 182.08 91.8 177.75 75.98C175.79 68.84 171.63 62.09 169.99 55C172.13 54.15 171.79 50.96 172.25 48.95C173.91 49.86 175.13 48.07 176.25 50.35C177.19 49.43 177.26 48.89 178.18 50.25C178.42 49.84 178.67 49.42 178.91 49.01ZM215.57 84.05C221.12 84.25 227.49 89.71 232.04 92.7C246.34 102.08 258.64 114.34 268.25 128.5C302.56 179.06 300.26 242.1 266.27 292.02C257.95 304.25 247.08 314.75 235.12 323.37C231.24 326.16 225.74 331.06 220.96 331.75C219.22 329.07 217.49 326.4 215.75 323.72C218.01 320.89 230.26 314.04 234.39 310.65C246.45 300.77 257.04 288.54 264.69 274.94C292.79 225.03 287.45 160.27 246.52 118.72C237.94 110.01 227.26 100 215.57 95.75C215.57 91.85 215.57 87.95 215.57 84.05ZM88.99 85.1C88.99 88.81 88.99 92.52 88.99 96.23C73.41 107.26 60.89 115.72 49.2 131.43C17.44 174.17 15.47 230.02 41.26 276.01C48.84 289.52 59.69 300.92 71.54 310.72C74.43 313.11 77.4 315.7 80.62 317.64C83.37 319.3 87.08 320.76 89.15 323.25C87.51 326.04 85.88 328.83 84.25 331.62C71.67 327.16 56.33 312.64 47.65 302.6C6.58 255.14 1.11 189.22 33.74 135.5C43.53 119.38 56.58 106.12 71.64 94.89C75.49 92.02 84.47 85.46 88.99 85.1ZM149.79 91.63C170.59 87.88 175.53 120.85 155.74 124.43C133.5 128.46 128.6 95.45 149.79 91.63ZM166.75 245.18C168.89 255.25 170.61 272.02 168.75 282.03C165.56 279.73 165.08 273.09 161.25 271.9C158.25 306.51 155.25 341.11 152.25 375.72C149.92 367.48 150.59 358.37 149.77 349.87C148.19 333.54 146.61 317.17 145.79 300.76C145.45 294.08 144.95 287.45 144.79 280.75C144.72 278.17 145.26 273.95 143.75 271.92C141.25 275.44 138.75 278.95 136.25 282.47C135.36 279 135.94 274.84 135.93 271.25C135.93 263.02 134.94 252.77 138.75 245.18C148.08 245.18 157.42 245.18 166.75 245.18ZM124.25 268.6C125.45 269.81 124.97 272.44 125.06 274.25C125.3 279.42 125.01 284.58 125.13 289.75C125.58 310.55 119.34 331.92 105.29 347.55C102.85 350.26 94.1 359.65 90.73 359.75C92.63 355.74 96.44 352.38 98.71 348.47C104.32 338.84 108.52 328.58 110.8 317.63C112.53 309.28 113.03 300.77 113.23 292.27C113.32 288.81 112.18 283.43 113.39 280.21C114.38 277.59 121.82 270.18 124.25 268.6ZM180.25 268.93C182.63 270.55 189.78 277.31 190.85 279.88C192.22 283.18 191.05 288.69 191.09 292.25C191.2 300.32 191.87 308.62 193.24 316.56C195.2 327.96 199.53 340.04 206.18 349.6C208.53 352.97 211.51 355.98 213.75 359.37C209.21 358.44 202.21 350.76 198.95 347.32C184.53 332.07 179.56 311.77 179.39 291.25C179.35 285.93 179.36 280.56 179.48 275.25C179.53 273.27 179.1 270.39 180.25 268.93Z" fill="#68f906" fill-rule="evenodd" stroke="#68f906" stroke-width="0.25" stroke-linejoin="round"/>
<path d="M178.91 49.01C178.67 49.42 178.42 49.84 178.18 50.25C177.26 48.89 177.19 49.43 176.25 50.35C175.13 48.07 173.91 49.86 172.25 48.95C171.79 50.96 172.13 54.15 169.99 55C165.71 48.03 159.18 32.05 152.25 27.96C144.52 33.6 141.87 44.46 136.06 51.6C134.65 50.64 133.81 45.08 132.75 43.02C131.68 43.1 130.6 43.17 129.53 43.25C129.7 42.31 129.86 41.37 130.03 40.43C130.65 37.52 133.12 34.53 134.73 31.99C138.6 25.9 146.45 13.71 152.25 9.83C159.6 14.58 170 31.22 174.16 39.12C175.71 42.05 178.58 45.74 178.91 49.01Z" fill="#8df506" fill-rule="evenodd" stroke="#8df506" stroke-width="0.25" stroke-linejoin="round"/>
</svg>