<?xml version="1.0" encoding="UTF-8"?>
<svg xmlns="http://www.w3.org/2000/svg" viewBox="0 0 354 414" width="354" height="414">
<path d="M0.13 0.13C118.04 0.13 235.96 0.13 353.88 0.13C353.88 138.04 353.88 275.96 353.88 413.88C235.96 413.88 118.04 413.88 0.13 413.88C0.13 275.96 0.13 138.04 0.13 0.13ZM225.73 157.25C230.06 152.06 235.82 149.28 237.23 141.94C238.27 136.52 234.76 130.69 236.31 125.58C237.75 120.82 240.91 116.24 242.81 111.59C245.94 103.91 247.69 95.03 247.95 86.75C249.23 46.35 218.48 7.15 176.25 7.21C136.31 7.25 104.02 42.47 103.3 81.75C103.12 91.05 104.41 100.51 107.38 109.34C109.22 114.82 112.83 120.01 114.22 125.56C115.82 131.93 111.68 137.91 114.3 144.44C116.96 151.08 122.05 152.58 124.76 157.25C123.58 163.34 119.05 169.74 115.32 174.58C105.26 187.61 92.08 198.71 76.92 205.21C68.57 208.79 57.02 211.71 49.07 205.67C39.78 198.62 44.38 186.13 50.2 178.44C61.7 163.26 80.17 144.16 65.83 124.39C57.88 113.43 42.22 111.18 30.99 118.25C26.67 120.98 23.17 125.16 21.81 130.13C21.29 132.03 20.45 134.43 22.12 135.75C23.45 135.09 24.44 133.31 25.42 132.16C28.03 129.09 31.51 126.78 35.41 125.71C49.92 121.71 60.82 133.52 54.73 147.51C52.46 152.72 48 157.29 44.22 161.46C37.52 168.85 30.51 176.29 26.05 185.3C23.28 190.89 22.5 197.64 23.5 203.75C26.51 222.23 44.46 230.8 61.75 230.16C69.76 229.86 78.14 227.79 85.52 224.75C96.99 220.04 107.12 213.41 116.08 204.83C119.24 201.81 126.07 192.43 128.75 190.91C130.58 192.8 129.17 195.91 128.41 198.2C126.39 204.2 123.78 209.84 120.51 215.26C106.92 237.72 81.16 249.25 71.19 274.39C65.45 288.84 65.12 304.82 70.25 319.52C73.42 328.59 78.95 337.53 79.84 347.26C80.86 358.45 72.51 368.55 60.77 364.95C56.27 363.57 54.64 359.91 51.18 358.25C46.94 361.39 55.79 370.23 58.82 371.93C71.32 378.93 87.57 371.61 90.92 357.73C95.68 338.02 82.91 319.96 84.59 300.25C87.12 270.6 111.8 261.17 128.63 240.89C132.72 235.97 136.41 230.9 139.54 225.31C140.96 222.78 142.32 218.69 144.75 217.11C147.04 219.15 145.22 224.36 144.77 227.11C143.1 237.26 138.17 247.52 133.2 256.43C116.52 286.33 99.82 313.82 115.86 348.87C119.23 356.24 127.66 369.88 135.75 372.49C135.6 368.24 130.73 360.93 129.31 356.4C125.72 344.95 124.13 332.83 125.22 320.85C128.02 290.16 151.58 267.07 161.76 239.04C165.54 228.61 166.73 217.71 168.69 206.86C169.34 203.29 169.73 197.14 174.75 197.08C179.61 197.01 180.12 203.29 180.65 206.73C182.47 218.76 184.09 230.11 188.17 241.63C198 269.36 222.22 288.31 225.03 319.75C226.18 332.58 224.16 345.62 219.98 357.73C218.31 362.58 215.03 367.34 213.87 372.25C216.35 372.09 219.18 368.98 221 367.26C227.43 361.2 232.21 353.28 235.34 345.11C237.55 339.34 239.32 333.42 240.01 327.25C243.42 296.66 226.49 276.22 213.38 250.87C209.47 243.3 206.88 235.23 204.73 227.03C203.97 224.16 202.79 219.55 205.25 217.34C207.77 219.19 208.65 222.91 210.21 225.58C213.49 231.2 217.15 236.4 221.36 241.38C237.89 260.93 262.61 271.22 265.61 299.75C267.83 320.88 250.7 342.12 261.1 362.66C265.63 371.61 277.66 377.58 287.39 373.66C291.92 371.83 302.46 364.38 299.25 358.45C297.51 358.92 297.1 360.31 295.73 361.49C292.45 364.3 288.1 366.22 283.75 365.88C273.16 365.05 269.53 354.45 270.86 345.25C272.16 336.2 276.94 328.17 279.8 319.61C285.06 303.82 284.35 287.22 277.75 271.97C270.2 254.53 254.01 244.15 241.42 230.82C236.8 225.92 232.58 220.49 228.87 214.87C225.51 209.77 222.59 203.65 221.02 197.75C220.41 195.48 219.2 192.85 221.25 191.06C223.35 191.95 224.84 195.13 226.29 196.96C229.07 200.48 232.18 203.75 235.54 206.72C246.52 216.45 259.15 223.87 273.34 227.85C294.61 233.82 325.5 227.46 326.08 200.25C326.16 196.55 325.78 192.6 324.71 189.05C319.2 170.85 299.09 161.55 293.33 143.9C289.24 131.38 301.68 123.04 312.75 125.5C316.53 126.34 320.07 128.2 322.9 130.85C324.33 132.19 326.01 135.31 327.86 135.75C331.19 127.99 321.45 119.26 315.29 116.43C303.39 110.97 287.71 115.34 281.37 127.12C269.93 148.39 290.23 164.81 300.7 180.55C305.46 187.71 308.14 199.74 299.92 205.66C292.16 211.26 281.03 208.83 272.97 205.29C256.99 198.28 242.7 186.98 232.91 172.34C230.03 168.04 226.09 162.53 225.73 157.25ZM232.49 113.25C234.65 119.45 225.54 122.52 223.82 126.59C222.48 129.74 223.46 134.35 221.79 138.06C219.23 143.75 211.51 148.83 205.25 148.94C202.48 148.99 200.25 147.56 197.6 147.25C195.87 147.04 194.75 148.2 192.92 147.75C192.52 147.08 192.13 146.42 191.73 145.75C193.07 142.64 197.8 139.83 200.4 137.66C207.58 131.65 214.6 125.47 222.08 119.82C224.74 117.81 229.1 113.22 232.49 113.25ZM118.75 113.6C122.61 113.55 126.99 118.42 130.02 120.73C136.62 125.79 142.68 131.37 149.03 136.72C152.26 139.45 156.12 142 158.83 145.25C158.67 146.78 158.16 147.57 156.75 148.27C155.75 147.86 154.75 147.46 153.75 147.05C151.21 147.61 148.92 148.81 146.25 148.94C139.39 149.26 131.42 144.18 128.96 137.76C127.57 134.13 128.72 129.42 127.15 126.12C125.13 121.89 117.02 119.5 118.75 113.6ZM74.84 245.75C73.69 244.82 70.83 245.2 69.25 244.97C63.76 244.16 58.31 243.34 52.74 243.22C27.61 242.69 4.69 256.62 5.81 284.25C6.33 296.99 21.32 318.47 36.13 311.75C34.53 309.43 30.86 308.41 28.51 306.74C25.03 304.25 21.96 300.48 20.13 296.63C12.86 281.28 24.19 265.36 39.74 262.88C47.66 261.61 54.29 264.35 61.75 264.34C64.62 260.77 66.52 256.27 69.27 252.52C70.94 250.25 73.6 248.23 74.84 245.75ZM313.39 311.75C316.17 313.06 318.9 312.78 321.82 312.16C334.29 309.51 342.65 296.44 343.34 284.25C344.97 255.7 320.19 243.22 295.25 243.21C290.42 243.21 278.77 243.24 274.89 245.75C279.47 251.92 284.04 258.08 288.61 264.25C295.1 263.87 301.26 262.09 307.86 262.78C320.81 264.13 330.87 273.39 331.04 286.75C331.09 290.32 330.26 293.81 328.75 297.03C326.75 301.33 323.43 305.1 319.47 307.72C317.49 309.04 314.68 309.79 313.39 311.75ZM194.75 288.91C194.05 288.96 193.58 288.73 192.99 289.26C192.16 290 192.56 292.74 192.55 293.75C192.49 297.78 193.59 302.95 192.16 306.75C190.04 307.08 187.92 307.42 185.79 307.75C185.46 313.47 185.12 319.19 184.78 324.9C183.1 324.9 181.42 324.9 179.73 324.9C179.73 336.26 179.73 347.62 179.73 358.97C182.24 358.97 184.74 358.97 187.25 358.97C188.14 363.17 186.06 373.28 188.25 376.12C189.03 376.05 189.73 376.28 190.22 375.48C191.29 373.75 189.77 362.89 190.41 359.75C192.07 359.42 193.72 359.08 195.38 358.75C195.67 356.58 195.96 354.42 196.25 352.25C198.49 351.92 200.73 351.58 202.97 351.25C204.83 345.47 203.34 326.91 203.34 319.75C203.35 315.86 204.16 310.84 202.75 307.2C200.42 307.2 198.08 307.2 195.75 307.2C194.58 302.32 197.14 292.61 194.75 288.91ZM158.75 322.18C156.06 324.32 158.52 335.55 157.22 339.25C154.58 339.58 151.93 339.92 149.29 340.25C149.29 355.59 149.29 370.93 149.29 386.27C151.94 386.27 154.6 386.27 157.25 386.27C158.22 389.71 156.24 403.09 159.25 403.85C161.79 401.59 159.62 390.53 160.73 386.75C163.45 386.45 166.17 386.15 168.89 385.85C168.89 370.53 168.89 355.21 168.89 339.9C166.35 339.9 163.8 339.9 161.25 339.9C159.57 336.29 162.31 323.35 158.75 322.18Z" fill="#000000" fill-rule="evenodd" stroke="#000000" stroke-width="0.25" stroke-linejoin="round"/>
<path d="M225.73 157.25C226.09 162.53 230.03 168.04 232.91 172.34C242.7 186.98 256.99 198.28 272.97 205.29C281.03 208.83 292.16 211.26 299.92 205.66C308.14 199.74 305.46 187.71 300.7 180.55C290.23 164.81 269.93 148.39 281.37 127.12C287.71 115.34 303.39 110.97 315.29 116.43C321.45 119.26 331.19 127.99 327.86 135.75C326.01 135.31 324.33 132.19 322.9 130.85C320.07 128.2 316.53 126.34 312.75 125.5C301.68 123.04 289.24 131.38 293.33 143.9C299.09 161.55 319.2 170.85 324.71 189.05C325.78 192.6 326.16 196.55 326.08 200.25C325.5 227.46 294.61 233.82 273.34 227.85C259.15 223.87 246.52 216.45 235.54 206.72C232.18 203.75 229.07 200.48 226.29 196.96C224.84 195.13 223.35 191.95 221.25 191.06C219.2 192.85 220.41 195.48 221.02 197.75C222.59 203.65 225.51 209.77 228.87 214.87C232.58 220.49 236.8 225.92 241.42 230.82C254.01 244.15 270.2 254.53 277.75 271.97C284.35 287.22 285.06 303.82 279.8 319.61C276.94 328.17 272.16 336.2 270.86 345.25C269.53 354.45 273.16 365.05 283.75 365.88C288.1 366.22 292.45 364.3 295.73 361.49C297.1 360.31 297.51 358.92 299.25 358.45C302.46 364.38 291.92 371.83 287.39 373.66C277.66 377.58 265.63 371.61 261.1 362.66C250.7 342.12 267.83 320.88 265.61 299.75C262.61 271.22 237.89 260.93 221.36 241.38C217.15 236.4 213.49 231.2 210.21 225.58C208.65 222.91 207.77 219.19 205.25 217.34C202.79 219.55 203.97 224.16 204.73 227.03C206.88 235.23 209.47 243.3 213.38 250.87C226.49 276.22 243.42 296.66 240.01 327.25C239.32 333.42 237.55 339.34 235.34 345.11C232.21 353.28 227.43 361.2 221 367.26C219.18 368.98 216.35 372.09 213.87 372.25C215.03 367.34 218.31 362.58 219.98 357.73C224.16 345.62 226.18 332.58 225.03 319.75C222.22 288.31 198 269.36 188.17 241.63C184.09 230.11 182.47 218.76 180.65 206.73C180.12 203.29 179.61 197.01 174.75 197.08C169.73 197.14 169.34 203.29 168.69 206.86C166.73 217.71 165.54 228.61 161.76 239.04C151.58 267.07 128.02 290.16 125.22 320.85C124.13 332.83 125.72 344.95 129.31 356.4C130.73 360.93 135.6 368.24 135.75 372.49C127.66 369.88 119.23 356.24 115.86 348.87C99.82 313.82 116.52 286.33 133.2 256.43C138.17 247.52 143.1 237.26 144.77 227.11C145.22 224.36 147.04 219.15 144.75 217.11C142.32 218.69 140.96 222.78 139.54 225.31C136.41 230.9 132.72 235.97 128.63 240.89C111.8 261.17 87.12 270.6 84.59 300.25C82.91 319.96 95.68 338.02 90.92 357.73C87.57 371.61 71.32 378.93 58.82 371.93C55.79 370.23 46.94 361.39 51.18 358.25C54.64 359.91 56.27 363.57 60.77 364.95C72.51 368.55 80.86 358.45 79.84 347.26C78.95 337.53 73.42 328.59 70.25 319.52C65.12 304.82 65.45 288.84 71.19 274.39C81.16 249.25 106.92 237.72 120.51 215.26C123.78 209.84 126.39 204.2 128.41 198.2C129.17 195.91 130.58 192.8 128.75 190.91C126.07 192.43 119.24 201.81 116.08 204.83C107.12 213.41 96.99 220.04 85.52 224.75C78.14 227.79 69.76 229.86 61.75 230.16C44.46 230.8 26.51 222.23 23.5 203.75C22.5 197.64 23.28 190.89 26.05 185.3C30.51 176.29 37.52 168.85 44.22 161.46C48 157.29 52.46 152.72 54.73 147.51C60.82 133.52 49.92 121.71 35.41 125.71C31.51 126.78 28.03 129.09 25.42 132.16C24.44 133.31 23.45 135.09 22.12 135.75C20.45 134.43 21.29 132.03 21.81 130.13C23.17 125.16 26.67 120.98 30.99 118.25C42.22 111.18 57.88 113.43 65.83 124.39C80.17 144.16 61.7 163.26 50.2 178.44C44.38 186.13 39.78 198.62 49.07 205.67C57.02 211.71 68.57 208.79 76.92 205.21C92.08 198.71 105.26 187.61 115.32 174.58C119.05 169.74 123.58 163.34 124.76 157.25C122.05 152.58 116.96 151.08 114.3 144.44C111.68 137.91 115.82 131.93 114.22 125.56C112.83 120.01 109.22 114.82 107.38 109.34C104.41 100.51 103.12 91.05 103.3 81.75C104.02 42.47 136.31 7.25 176.25 7.21C218.48 7.15 249.23 46.35 247.95 86.75C247.69 95.03 245.94 103.91 242.81 111.59C240.91 116.24 237.75 120.82 236.31 125.58C234.76 130.69 238.27 136.52 237.23 141.94C235.82 149.28 230.06 152.06 225.73 157.25ZM232.49 113.25C229.1 113.22 224.74 117.81 222.08 119.82C214.6 125.47 207.58 131.65 200.4 137.66C197.8 139.83 193.07 142.64 191.73 145.75C192.13 146.42 192.52 147.08 192.92 147.75C194.75 148.2 195.87 147.04 197.6 147.25C200.25 147.56 202.48 148.99 205.25 148.94C211.51 148.83 219.23 143.75 221.79 138.06C223.46 134.35 222.48 129.74 223.82 126.59C225.54 122.52 234.65 119.45 232.49 113.25ZM118.75 113.6C117.02 119.5 125.13 121.89 127.15 126.12C128.72 129.42 127.57 134.13 128.96 137.76C131.42 144.18 139.39 149.26 146.25 148.94C148.92 148.81 151.21 147.61 153.75 147.05C154.75 147.46 155.75 147.86 156.75 148.27C158.16 147.57 158.67 146.78 158.83 145.25C156.12 142 152.26 139.45 149.03 136.72C142.68 131.37 136.62 125.79 130.02 120.73C126.99 118.42 122.61 113.55 118.75 113.6ZM74.84 245.75C73.6 248.23 70.94 250.25 69.27 252.52C66.52 256.27 64.62 260.77 61.75 264.34C54.29 264.35 47.66 261.61 39.74 262.88C24.19 265.36 12.86 281.28 20.13 296.63C21.96 300.48 25.03 304.25 28.51 306.74C30.86 308.41 34.53 309.43 36.13 311.75C21.32 318.47 6.33 296.99 5.81 284.25C4.69 256.62 27.61 242.69 52.74 243.22C58.31 243.34 63.76 244.16 69.25 244.97C70.83 245.2 73.69 244.82 74.84 245.75ZM313.39 311.75C314.68 309.79 317.49 309.04 319.47 307.72C323.43 305.1 326.75 301.33 328.75 297.03C330.26 293.81 331.09 290.32 331.04 286.75C330.87 273.39 320.81 264.13 307.86 262.78C301.26 262.09 295.1 263.87 288.61 264.25C284.04 258.08 279.47 251.92 274.89 245.75C278.77 243.24 290.42 243.21 295.25 243.21C320.19 243.22 344.97 255.7 343.34 284.25C342.65 296.44 334.29 309.51 321.82 312.16C318.9 312.78 316.17 313.06 313.39 311.75ZM194.75 288.91C197.14 292.61 194.58 302.32 195.75 307.2C198.08 307.2 200.42 307.2 202.75 307.2C204.16 310.84 203.35 315.86 203.34 319.75C203.34 326.91 204.83 345.47 202.97 351.25C200.73 351.58 198.49 351.92 196.25 352.25C195.96 354.42 195.67 356.58 195.38 358.75C193.72 359.08 192.07 359.42 190.41 359.75C189.77 362.89 191.29 373.75 190.22 375.48C189.73 376.28 189.03 376.05 188.25 376.12C186.06 373.28 188.14 363.17 187.25 358.97C184.74 358.97 182.24 358.97 179.73 358.97C179.73 347.62 179.73 336.26 179.73 324.9C181.42 324.9 183.1 324.9 184.78 324.9C185.12 319.19 185.46 313.47 185.79 307.75C187.92 307.42 190.04 307.08 192.16 306.75C193.59 302.95 192.49 297.78 192.55 293.75C192.56 292.74 192.16 290 192.99 289.26C193.58 288.73 194.05 288.96 194.75 288.91ZM158.75 322.18C162.31 323.35 159.57 336.29 161.25 339.9C163.8 339.9 166.35 339.9 168.89 339.9C168.89 355.21 168.89 370.53 168.89 385.85C166.17 386.15 163.45 386.45 160.73 386.75C159.62 390.53 161.79 401.59 159.25 403.85C156.24 403.09 158.22 389.71 157.25 386.27C154.6 386.27 151.94 386.27 149.29 386.27C149.29 370.93 149.29 355.59 149.29 340.25C151.93 339.92 154.58 339.58 157.22 339.25C158.52 335.55 156.06 324.32 158.75 322.18Z" fill="#66fa04" fill-rule="evenodd" stroke="#66fa04" stroke-width="0.25" stroke-linejoin="round"/>
</svg>