<?xml version="1.0" encoding="UTF-8"?>
<svg xmlns="http://www.w3.org/2000/svg" viewBox="0 0 411 332" width="411" height="332">
<path d="M0.13 0.13C137.04 0.13 273.96 0.13 410.88 0.13C410.88 110.71 410.88 221.29 410.88 331.88C273.96 331.88 137.04 331.88 0.13 331.88C0.13 221.29 0.13 110.71 0.13 0.13ZM344.7 104.25C340.9 88.93 324.3 67.3 313.19 56.07C277.83 20.34 223.47 2.03 173.94 15.23C151.52 21.2 131.48 31.21 113.02 45.28C89.49 63.2 73.33 89.71 63.31 117.07C61.16 122.92 59.47 129.42 58.27 135.54C57.67 138.61 57.74 142.72 56.25 145.46C53.07 146.56 48.64 145.81 45.25 145.84C37.42 145.89 29.58 145.78 21.75 145.85C17.79 145.88 12.76 144.95 12.67 150.25C12.65 151.46 12.41 153.11 12.9 154.25C14.66 158.34 23.29 156.52 26.75 156.5C36.75 156.41 46.75 156.63 56.75 156.57C60.58 156.55 64.9 157.18 68.66 156.36C75.95 154.75 69.8 148.34 67.25 146.15C66.27 141.35 68.58 135.34 69.95 130.72C73.34 119.27 77.07 108.55 82.69 97.94C108.32 49.48 164.11 15.9 219.72 22.18C252.27 25.86 282.96 39.59 306 63.26C313.53 71 320.43 79.52 325.84 88.9C327.23 91.31 333.1 103.52 334.35 104.43C336.12 105.7 342.76 105.15 344.7 104.25ZM259.91 63.23C259.17 62.96 258.02 62.31 257.27 62.99C256.25 63.92 256.77 66.53 256.76 67.75C256.73 71.47 258.09 78.12 256.25 81.31C253.42 81.57 250.58 81.83 247.75 82.09C246.27 86.41 247.23 92.2 247.3 96.75C247.4 104.35 245.84 119.64 247.75 126.25C250.64 126.58 253.53 126.92 256.42 127.25C257.15 130.97 255.39 141.1 257.75 143.46C258.51 143.34 259.37 143.43 259.75 142.57C261.34 138.95 259.35 131.44 260.25 127.18C263.16 126.89 266.07 126.6 268.97 126.31C268.97 111.41 268.97 96.52 268.97 81.62C265.95 81.62 262.93 81.62 259.91 81.62C259.91 75.49 259.91 69.36 259.91 63.23ZM223.25 101.11C220.22 104.74 223.87 111.68 221.75 115.84C218.84 115.84 215.94 115.84 213.03 115.84C213.03 130.79 213.03 145.75 213.03 160.71C215.94 160.71 218.84 160.71 221.75 160.71C223.45 164.53 220.68 174.89 223.33 177.25C227.4 177.22 225.26 164.63 225.79 161.25C228.54 160.92 231.29 160.58 234.04 160.25C235.69 156.95 234.62 151.45 234.7 147.75C234.93 137.37 235.64 126.14 234.42 115.85C231.7 115.85 228.97 115.85 226.25 115.85C224.37 112.43 227.83 101.32 223.25 101.11ZM154.96 111.18C154.09 111.03 152.8 110.47 152.13 111.38C150.66 113.37 152.84 125.72 151.36 129.52C148.36 129.52 145.35 129.52 142.35 129.52C142.35 143.77 142.35 158.01 142.35 172.25C145.48 172.55 148.62 172.86 151.75 173.16C152.39 176.82 150.56 187.51 152.75 189.79C153.4 189.77 154.14 190 154.61 189.39C156.2 187.35 154.45 176.18 155.25 172.77C158.17 172.77 161.08 172.77 164 172.77C164 158.31 164 143.86 164 129.41C160.98 129.41 157.97 129.41 154.96 129.41C154.96 123.33 154.96 117.26 154.96 111.18ZM215.25 228.45C220.63 225.27 232.12 211.18 237.17 205.91C254.79 187.55 272 168.75 289.82 150.58C295.17 145.13 300.52 139.56 305.67 133.92C307.64 131.76 309.76 128.55 312.19 126.94C315.01 125.06 321.44 126.42 324.75 126.39C336.08 126.3 347.42 126.48 358.75 126.41C363.02 126.38 370.6 127.75 370.81 121.75C370.85 120.58 371.01 119.39 370.46 118.33C368.62 114.82 362.96 116.22 359.75 116.24C349.59 116.28 339.41 116.27 329.25 116.2C325.21 116.17 312.3 115.13 309.27 116.49C306.7 117.64 304.43 121.25 302.55 123.3C297.68 128.6 292.58 133.68 287.71 138.97C270.87 157.26 253.24 174.82 236.22 192.97C231.23 198.3 226.27 203.67 221.2 208.94C219 211.23 216.61 214.62 213.75 215.97C201.25 208.84 188.75 201.71 176.25 194.57C169.96 198.27 165.12 205.62 160 210.75C147.47 223.32 135.25 236.4 123.19 249.43C119.27 253.67 115.17 257.76 111.32 262.07C109.53 264.08 107.25 267.35 104.75 268.32C99.04 264.9 94.35 256.92 90.79 251.45C80.2 235.21 75.84 223.46 69.75 205.33C66.45 205.33 63.15 205.33 59.85 205.33C59.43 210.13 62.35 215.86 63.82 220.38C68.09 233.55 74.88 246.11 82.77 257.47C119.7 310.73 185.2 338.04 248.55 318.77C291.72 305.64 326.82 272.72 344.77 231.54C348.14 223.83 351.06 215.44 352.93 207.24C354.15 201.91 354.47 195.17 356.71 190.25C359.77 189.15 363.99 189.91 367.25 189.88C374.75 189.82 382.25 189.83 389.75 189.8C395.83 189.78 402.39 190.89 400.93 182.26C400.17 177.83 392.82 179.41 389.75 179.39C379.25 179.29 368.75 179.33 358.25 179.23C355.58 179.21 349.52 178.03 347.63 180.38C346.22 182.16 346.77 186.48 346.41 188.74C345.3 195.6 343.95 202.31 342.27 209.06C338.44 224.39 330.81 239.65 321.78 252.54C285.15 304.85 221.95 327.32 160.9 306.32C147.71 301.78 134.48 294.99 123.51 286.25C119.8 283.3 114.6 280.27 112.05 276.25C133.95 253.13 155.85 230.02 177.75 206.9C190.25 214.08 202.75 221.27 215.25 228.45ZM190.81 123.25C189.85 123.02 188.88 122.53 188.06 123.36C186.96 124.48 187.67 135.58 187.06 138.11C184.11 138.11 181.16 138.11 178.21 138.11C178.21 148.77 178.21 159.44 178.21 170.11C181.08 170.11 183.94 170.11 186.81 170.11C187.25 175.2 187.69 180.29 188.14 185.38C188.84 185.38 189.55 185.38 190.26 185.38C190.59 180.28 190.92 175.19 191.25 170.09C194.03 170.09 196.82 170.09 199.6 170.09C199.6 159.64 199.6 149.2 199.6 138.75C196.67 138.42 193.74 138.08 190.81 137.75C190.81 132.92 190.81 128.08 190.81 123.25ZM345.25 137.93C345.1 142.09 346.21 146.56 346.51 150.75C346.61 152.28 346.3 154.54 347.54 155.69C349.36 157.37 353.51 156.56 355.75 156.56C363.25 156.55 370.75 156.55 378.25 156.66C383.75 156.75 389.25 156.53 394.75 156.54C396.89 156.54 399.81 156.48 400.74 154.03C401.16 152.91 400.97 151.43 400.97 150.25C400.94 144.67 395.34 145.87 391.25 145.91C383.42 145.98 375.58 145.82 367.75 145.87C364.41 145.89 359.83 146.73 356.75 145.49C356.21 142.97 355.66 140.45 355.12 137.93C351.83 137.93 348.54 137.93 345.25 137.93ZM119.75 161.23C118.99 161.13 117.85 160.7 117.29 161.52C116.13 163.24 117.19 171.71 116.75 174.33C113.77 174.64 110.79 174.94 107.81 175.25C107.81 189.58 107.81 203.92 107.81 218.25C110.87 218.5 113.94 218.76 117.01 219.01C117.01 224.09 117.01 229.17 117.01 234.25C118.03 234.45 119 234.91 119.91 234.13C120.89 233.29 120.36 230.89 120.35 229.75C120.34 226.13 119.82 222.05 120.75 218.57C123.62 218.57 126.5 218.57 129.37 218.57C129.37 203.99 129.37 189.41 129.37 174.83C126.5 174.83 123.62 174.83 120.75 174.83C120.42 170.3 120.08 165.76 119.75 161.23ZM54.75 170.76C56.02 169.03 56.99 165.1 54.16 164.13C52.28 163.48 38.02 163.55 35.76 163.99C34.38 164.25 33.61 165.41 33.39 166.75C33.15 168.15 33.46 170.12 34.9 170.82C37.74 172.2 51.69 171.6 54.75 170.76ZM352.9 164.2C349.79 165.32 350 169.62 352.9 170.82C356.23 172.19 368.27 171.34 372.37 171.25C374.66 171.19 377.17 171.07 377.5 168.25C377.67 166.78 377.21 164.76 375.62 164.17C373.79 163.5 371.18 163.99 369.25 163.99C364.96 163.98 356.73 162.82 352.9 164.2ZM67.17 190.06C69.55 188.02 75.63 181.91 69.6 179.68C65.86 178.3 60.21 179.37 56.25 179.37C46.25 179.36 36.25 179.13 26.25 179.36C22.82 179.44 14.26 177.78 12.76 182.03C9.97 189.98 17.04 189.81 22.25 189.79C29.66 189.76 50.35 188.5 56.23 190.25C56.7 192.2 57.17 194.14 57.64 196.09C60.82 196.09 64 196.09 67.17 196.09C67.17 194.08 67.17 192.07 67.17 190.06Z" fill="#000100" fill-rule="evenodd" stroke="#000100" stroke-width="0.25" stroke-linejoin="round"/>
<path d="M344.7 104.25C342.76 105.15 336.12 105.7 334.35 104.43C333.1 103.52 327.23 91.31 325.84 88.9C320.43 79.52 313.53 71 306 63.26C282.96 39.59 252.27 25.86 219.72 22.18C164.11 15.9 108.32 49.48 82.69 97.94C77.07 108.55 73.34 119.27 69.95 130.72C68.58 135.34 66.27 141.35 67.25 146.15C69.8 148.34 75.95 154.75 68.66 156.36C64.9 157.18 60.58 156.55 56.75 156.57C46.75 156.63 36.75 156.41 26.75 156.5C23.29 156.52 14.66 158.34 12.9 154.25C12.41 153.11 12.65 151.46 12.67 150.25C12.76 144.95 17.79 145.88 21.75 145.85C29.58 145.78 37.42 145.89 45.25 145.84C48.64 145.81 53.07 146.56 56.25 145.46C57.74 142.72 57.67 138.61 58.27 135.54C59.47 129.42 61.16 122.92 63.31 117.07C73.33 89.71 89.49 63.2 113.02 45.28C131.48 31.21 151.52 21.2 173.94 15.23C223.47 2.03 277.83 20.34 313.19 56.07C324.3 67.3 340.9 88.93 344.7 104.25ZM259.91 63.23C259.91 69.36 259.91 75.49 259.91 81.62C262.93 81.62 265.95 81.62 268.97 81.62C268.97 96.52 268.97 111.41 268.97 126.31C266.07 126.6 263.16 126.89 260.25 127.18C259.35 131.44 261.34 138.95 259.75 142.57C259.37 143.43 258.51 143.34 257.75 143.46C255.39 141.1 257.15 130.97 256.42 127.25C253.53 126.92 250.64 126.58 247.75 126.25C245.84 119.64 247.4 104.35 247.3 96.75C247.23 92.2 246.27 86.41 247.75 82.09C250.58 81.83 253.42 81.57 256.25 81.31C258.09 78.12 256.73 71.47 256.76 67.75C256.77 66.53 256.25 63.92 257.27 62.99C258.02 62.31 259.17 62.96 259.91 63.23ZM223.25 101.11C227.83 101.32 224.37 112.43 226.25 115.85C228.97 115.85 231.7 115.85 234.42 115.85C235.64 126.14 234.93 137.37 234.7 147.75C234.62 151.45 235.69 156.95 234.04 160.25C231.29 160.58 228.54 160.92 225.79 161.25C225.26 164.63 227.4 177.22 223.33 177.25C220.68 174.89 223.45 164.53 221.75 160.71C218.84 160.71 215.94 160.71 213.03 160.71C213.03 145.75 213.03 130.79 213.03 115.84C215.94 115.84 218.84 115.84 221.75 115.84C223.87 111.68 220.22 104.74 223.25 101.11ZM154.96 111.18C154.96 117.26 154.96 123.33 154.96 129.41C157.97 129.41 160.98 129.41 164 129.41C164 143.86 164 158.31 164 172.77C161.08 172.77 158.17 172.77 155.25 172.77C154.45 176.18 156.2 187.35 154.61 189.39C154.14 190 153.4 189.77 152.75 189.79C150.56 187.51 152.39 176.82 151.75 173.16C148.62 172.86 145.48 172.55 142.35 172.25C142.35 158.01 142.35 143.77 142.35 129.52C145.35 129.52 148.36 129.52 151.36 129.52C152.84 125.72 150.66 113.37 152.13 111.38C152.8 110.47 154.09 111.03 154.96 111.18ZM215.25 228.45C202.75 221.27 190.25 214.08 177.75 206.9C155.85 230.02 133.95 253.13 112.05 276.25C114.6 280.27 119.8 283.3 123.51 286.25C134.48 294.99 147.71 301.78 160.9 306.32C221.95 327.32 285.15 304.85 321.78 252.54C330.81 239.65 338.44 224.39 342.27 209.06C343.95 202.31 345.3 195.6 346.41 188.74C346.77 186.48 346.22 182.16 347.63 180.38C349.52 178.03 355.58 179.21 358.25 179.23C368.75 179.33 379.25 179.29 389.75 179.39C392.82 179.41 400.17 177.83 400.93 182.26C402.39 190.89 395.83 189.78 389.75 189.8C382.25 189.83 374.75 189.82 367.25 189.88C363.99 189.91 359.77 189.15 356.71 190.25C354.47 195.17 354.15 201.91 352.93 207.24C351.06 215.44 348.14 223.83 344.77 231.54C326.82 272.72 291.72 305.64 248.55 318.77C185.2 338.04 119.7 310.73 82.77 257.47C74.88 246.11 68.09 233.55 63.82 220.38C62.35 215.86 59.43 210.13 59.85 205.33C63.15 205.33 66.45 205.33 69.75 205.33C75.84 223.46 80.2 235.21 90.79 251.45C94.35 256.92 99.04 264.9 104.75 268.32C107.25 267.35 109.53 264.08 111.32 262.07C115.17 257.76 119.27 253.67 123.19 249.43C135.25 236.4 147.47 223.32 160 210.75C165.12 205.62 169.96 198.27 176.25 194.57C188.75 201.71 201.25 208.84 213.75 215.97C216.61 214.62 219 211.23 221.2 208.94C226.27 203.67 231.23 198.3 236.22 192.97C253.24 174.82 270.87 157.26 287.71 138.97C292.58 133.68 297.68 128.6 302.55 123.3C304.43 121.25 306.7 117.64 309.27 116.49C312.3 115.13 325.21 116.17 329.25 116.2C339.41 116.27 349.59 116.28 359.75 116.24C362.96 116.22 368.62 114.82 370.46 118.33C371.01 119.39 370.85 120.58 370.81 121.75C370.6 127.75 363.02 126.38 358.75 126.41C347.42 126.48 336.08 126.3 324.75 126.39C321.44 126.42 315.01 125.06 312.19 126.94C309.76 128.55 307.64 131.76 305.67 133.92C300.52 139.56 295.17 145.13 289.82 150.58C272 168.75 254.79 187.55 237.17 205.91C232.12 211.18 220.63 225.27 215.25 228.45ZM190.81 123.25C190.81 128.08 190.81 132.92 190.81 137.75C193.74 138.08 196.67 138.42 199.6 138.75C199.6 149.2 199.6 159.64 199.6 170.09C196.82 170.09 194.03 170.09 191.25 170.09C190.92 175.19 190.59 180.28 190.26 185.38C189.55 185.38 188.84 185.38 188.14 185.38C187.69 180.29 187.25 175.2 186.81 170.11C183.94 170.11 181.08 170.11 178.21 170.11C178.21 159.44 178.21 148.77 178.21 138.11C181.16 138.11 184.11 138.11 187.06 138.11C187.67 135.58 186.96 124.48 188.06 123.36C188.88 122.53 189.85 123.02 190.81 123.25ZM345.25 137.93C348.54 137.93 351.83 137.93 355.12 137.93C355.66 140.45 356.21 142.97 356.75 145.49C359.83 146.73 364.41 145.89 367.75 145.87C375.58 145.82 383.42 145.98 391.25 145.91C395.34 145.87 400.94 144.67 400.97 150.25C400.97 151.43 401.16 152.91 400.74 154.03C399.81 156.48 396.89 156.54 394.75 156.54C389.25 156.53 383.75 156.75 378.25 156.66C370.75 156.55 363.25 156.55 355.75 156.56C353.51 156.56 349.36 157.37 347.54 155.69C346.3 154.54 346.61 152.28 346.51 150.75C346.21 146.56 345.1 142.09 345.25 137.93ZM119.75 161.23C120.08 165.76 120.42 170.3 120.75 174.83C123.62 174.83 126.5 174.83 129.37 174.83C129.37 189.41 129.37 203.99 129.37 218.57C126.5 218.57 123.62 218.57 120.75 218.57C119.82 222.05 120.34 226.13 120.35 229.75C120.36 230.89 120.89 233.29 119.91 234.13C119 234.91 118.03 234.45 117.01 234.25C117.01 229.17 117.01 224.09 117.01 219.01C113.94 218.76 110.87 218.5 107.81 218.25C107.81 203.92 107.81 189.58 107.81 175.25C110.79 174.94 113.77 174.64 116.75 174.33C117.19 171.71 116.13 163.24 117.29 161.52C117.85 160.7 118.99 161.13 119.75 161.23ZM54.75 170.76C51.69 171.6 37.74 172.2 34.9 170.82C33.46 170.12 33.15 168.15 33.39 166.75C33.61 165.41 34.38 164.25 35.76 163.99C38.02 163.55 52.28 163.48 54.16 164.13C56.99 165.1 56.02 169.03 54.75 170.76ZM352.9 164.2C356.73 162.82 364.96 163.98 369.25 163.99C371.18 163.99 373.79 163.5 375.62 164.17C377.21 164.76 377.67 166.78 377.5 168.25C377.17 171.07 374.66 171.19 372.37 171.25C368.27 171.34 356.23 172.19 352.9 170.82C350 169.62 349.79 165.32 352.9 164.2ZM67.17 190.06C67.17 192.07 67.17 194.08 67.17 196.09C64 196.09 60.82 196.09 57.64 196.09C57.17 194.14 56.7 192.2 56.23 190.25C50.35 188.5 29.66 189.76 22.25 189.79C17.04 189.81 9.97 189.98 12.76 182.03C14.26 177.78 22.82 179.44 26.25 179.36C36.25 179.13 46.25 179.36 56.25 179.37C60.21 179.37 65.86 178.3 69.6 179.68C75.63 181.91 69.55 188.02 67.17 190.06Z" fill="#68f806" fill-rule="evenodd" stroke="#68f806" stroke-width="0.25" stroke-linejoin="round"/>
</svg>